# This file uses centimeters as units for non-parametric coordinates.

mtllib PuertaC.mtl
g default
v -1.677145 2.063758 0.000000
v -1.922855 2.372350 0.000000
v -1.679809 -2.154901 0.000000
v -1.920191 -2.371704 -0.000000
v 1.675273 2.063758 -0.000000
v 1.918575 2.372350 -0.000000
v 1.677911 -2.154901 0.000000
v 1.915937 -2.371704 -0.000000
vt 1.000000 0.000000
vt 1.000000 1.000000
vt 0.000000 0.000000
vt 1.000000 0.000000
vt 1.000000 1.000000
vt 0.000000 1.000000
vt 0.000000 0.000000
vt 1.000000 0.000000
vt 1.000000 0.000000
vt 1.000000 1.000000
vt 0.000000 0.000000
vt 1.000000 0.000000
vt 1.000000 1.000000
vt 0.000000 1.000000
vt 0.000000 0.000000
vt 1.000000 0.000000
vn 0.000000 -0.000000 -1.000000
vn 0.000000 -0.000000 -1.000000
vn 0.000000 -0.000000 -1.000000
vn 0.000000 -0.000000 -1.000000
vn 0.000000 0.000000 -1.000000
vn 0.000000 0.000000 -1.000000
vn 0.000000 0.000000 -1.000000
vn 0.000000 0.000000 -1.000000
vn -0.000000 -0.000000 -1.000000
vn -0.000000 -0.000000 -1.000000
vn -0.000000 -0.000000 -1.000000
vn -0.000000 -0.000000 -1.000000
vn -0.000000 0.000000 -1.000000
vn -0.000000 0.000000 -1.000000
vn -0.000000 0.000000 -1.000000
vn -0.000000 0.000000 -1.000000
s off
g frame_C
usemtl initialShadingGroup
f 2/3/1 1/4/2 3/5/3 4/6/4
f 8/15/5 4/7/6 3/8/7 7/16/8
f 2/2/9 6/10/10 5/9/11 1/1/12
f 6/11/13 8/14/14 7/13/15 5/12/16
