# This file uses centimeters as units for non-parametric coordinates.

mtllib PuertaE.mtl
g default
v 2.050408 0.410452 -0.030213
v 1.807318 0.935442 -0.030147
v 1.319252 1.425490 -0.034677
v 0.695936 1.742846 -0.030147
v -0.695936 1.742846 -0.030147
v -1.319252 1.425490 -0.034677
v -1.805434 0.935442 -0.030147
v -2.196178 0.408696 -0.030213
v -2.196662 -1.082548 -0.030213
v -1.810375 -1.714938 -0.032412
v -1.319251 -2.206098 -0.034677
v -0.693572 -2.524898 -0.034677
v -0.000000 -2.634749 -0.034677
v 0.693571 -2.524898 -0.034677
v 1.319252 -2.206098 -0.034677
v 1.811450 -1.714938 -0.032412
v 2.195900 -1.082534 -0.030213
v 1.964971 0.344771 -0.030147
v 1.964490 -1.018396 -0.030147
v 1.664850 -1.606368 -0.030147
v 1.214633 -2.062104 -0.034677
v 0.638570 -2.355623 -0.034677
v -0.000000 -2.456763 -0.034677
v -0.638571 -2.355623 -0.034677
v -1.214634 -2.062104 -0.034677
v -1.662968 -1.606368 -0.030147
v -1.968226 -1.015177 -0.030147
v -1.965900 0.343492 -0.030147
v -1.673318 0.824316 -0.030147
v -1.214634 1.281495 -0.034677
v -0.640278 1.573760 -0.030147
v 0.640278 1.573760 -0.030147
v 1.214635 1.281496 -0.034677
v 1.675201 0.824317 -0.030147
v -2.455021 0.682535 -0.025553
v -2.739033 0.635553 -0.025553
v -2.995243 0.499205 -0.025553
v -3.198572 0.286839 -0.025553
v -3.329118 0.019241 -0.025553
v -3.374100 -0.277392 -0.025553
v -3.329118 -0.574026 -0.025553
v -3.198572 -0.841623 -0.025553
v -2.995243 -1.053989 -0.025553
v -2.739032 -1.190337 -0.025553
v -2.338579 -1.310733 -0.025553
v -2.026994 -1.308936 -0.025618
v -2.419195 -1.119766 -0.025553
v -2.677024 -0.991011 -0.025553
v -2.877294 -0.884433 -0.025553
v -3.036230 -0.718433 -0.025553
v -3.138273 -0.509261 -0.025553
v -3.173435 -0.277392 -0.025553
v -3.138273 -0.045524 -0.025553
v -3.036230 0.163648 -0.025553
v -2.877295 0.329648 -0.025553
v -2.677024 0.436227 -0.025553
v -2.455021 0.472951 -0.025553
v 3.332883 0.019242 -0.025553
v 3.202336 0.286838 -0.025553
v 2.999008 0.499206 -0.025553
v 2.742796 0.635553 -0.025553
v 2.458786 0.682534 -0.025553
v 2.025724 -1.308911 -0.025618
v 2.337163 -1.310706 -0.025553
v 2.742796 -1.190337 -0.025553
v 2.999007 -1.053989 -0.025553
v 3.202336 -0.841623 -0.025553
v 3.332883 -0.574026 -0.025553
v 3.377866 -0.277392 -0.025553
v 3.177200 -0.277392 -0.025553
v 3.142038 -0.045523 -0.025553
v 3.142038 -0.509261 -0.025553
v 3.039995 -0.718433 -0.025553
v 2.881059 -0.884432 -0.025553
v 2.680788 -0.991011 -0.025553
v 2.417780 -1.119739 -0.025553
v 2.458786 0.472951 -0.025553
v 2.680789 0.436227 -0.025553
v 2.881059 0.329648 -0.025553
v 3.039995 0.163649 -0.025553
v 0.849624 2.017461 -0.025618
v 0.722734 2.266498 -0.025618
v 0.525097 2.464135 -0.025618
v 0.276060 2.591026 -0.025618
v 0.000000 2.634749 -0.025618
v -0.276060 2.591026 -0.025618
v -0.525097 2.464135 -0.025618
v -0.722733 2.266498 -0.025618
v -0.849624 2.017461 -0.025618
v -0.893347 1.641927 -0.025618
v 0.893347 1.637557 -0.025618
v 0.664123 1.957188 -0.025618
v -0.664123 1.957188 -0.025618
v -0.564937 2.151852 -0.025618
v -0.410451 2.306338 -0.025618
v -0.215787 2.405525 -0.025618
v 0.000000 2.439702 -0.025618
v 0.215787 2.405525 -0.025618
v 0.410451 2.306338 -0.025618
v 0.564937 2.151852 -0.025618
v 2.038436 0.626567 -0.027850
v -2.035613 0.626567 -0.027850
vt 0.626409 0.064408
vt 0.591842 0.029841
vt 0.548284 0.007647
vt 0.451716 0.007647
vt 0.408159 0.029841
vt 0.373591 0.064409
vt 0.373591 0.248091
vt 0.408159 0.282659
vt 0.451716 0.304853
vt 0.500000 0.312500
vt 0.548284 0.304853
vt 0.591841 0.282659
vt 0.626409 0.248091
vt 0.626409 0.248091
vt 0.591841 0.282659
vt 0.548284 0.304853
vt 0.500000 0.312500
vt 0.451716 0.304853
vt 0.408159 0.282659
vt 0.373591 0.248091
vt 0.373591 0.064409
vt 0.408159 0.029841
vt 0.451716 0.007647
vt 0.548284 0.007647
vt 0.591842 0.029841
vt 0.626409 0.064408
vt 0.591841 0.282659
vt 0.548284 0.304853
vt 0.500000 0.312500
vt 0.451716 0.304853
vt 0.408159 0.282659
vt 0.373591 0.248091
vt 0.351397 0.204534
vt 0.343750 0.156250
vt 0.351397 0.107966
vt 0.373591 0.064409
vt 0.408159 0.029841
vt 0.451716 0.007647
vt 0.500000 -0.000000
vt 0.548284 0.007647
vt 0.591842 0.029841
vt 0.591841 0.282659
vt 0.548284 0.304853
vt 0.500000 0.312500
vt 0.451716 0.304853
vt 0.408159 0.282659
vt 0.373591 0.248091
vt 0.351397 0.204534
vt 0.343750 0.156250
vt 0.351397 0.107966
vt 0.373591 0.064409
vt 0.408159 0.029841
vt 0.451716 0.007647
vt 0.500000 -0.000000
vt 0.548284 0.007647
vt 0.591842 0.029841
vt 0.648603 0.107966
vt 0.656250 0.156250
vt 0.648603 0.204534
vt 0.626409 0.248091
vt 0.591841 0.282659
vt 0.548284 0.304853
vt 0.500000 0.312500
vt 0.451716 0.304853
vt 0.408159 0.282659
vt 0.408159 0.029841
vt 0.451716 0.007647
vt 0.500000 -0.000000
vt 0.548284 0.007647
vt 0.591842 0.029841
vt 0.626409 0.064408
vt 0.648603 0.107966
vt 0.656250 0.156250
vt 0.648603 0.204534
vt 0.626409 0.248091
vt 0.591841 0.282659
vt 0.548284 0.304853
vt 0.500000 0.312500
vt 0.451716 0.304853
vt 0.408159 0.282659
vt 0.408159 0.029841
vt 0.451716 0.007647
vt 0.500000 -0.000000
vt 0.548284 0.007647
vt 0.591842 0.029841
vt 0.626409 0.064408
vt 0.648603 0.107966
vt 0.656250 0.156250
vt 0.343750 0.156250
vt 0.351397 0.107966
vt 0.373591 0.064409
vt 0.408159 0.029841
vt 0.451716 0.007647
vt 0.500000 -0.000000
vt 0.548284 0.007647
vt 0.591842 0.029841
vt 0.626409 0.064408
vt 0.648603 0.107966
vt 0.656250 0.156250
vt 0.343750 0.156250
vt 0.351397 0.107966
vt 0.373591 0.064409
vt 0.408159 0.029841
vt 0.451716 0.007647
vt 0.500000 -0.000000
vt 0.548284 0.007647
vt 0.591842 0.029841
vt 0.626409 0.064408
vt 0.000000 0.000000
vt 1.000000 0.000000
vt 1.000000 1.000000
vt 0.000000 0.000000
vt 1.000000 0.000000
vt 0.000000 1.000000
vt 0.475858 0.003824
vt 0.524142 0.003824
vn -0.000899 0.008071 -0.999967
vn -0.000899 0.008071 -0.999967
vn -0.000899 0.008071 -0.999967
vn -0.000899 0.008071 -0.999967
vn 0.000000 0.000000 -1.000000
vn 0.000000 0.000000 -1.000000
vn 0.000000 0.000000 -1.000000
vn 0.000000 0.000000 -1.000000
vn 0.000000 0.000000 -1.000000
vn 0.000000 0.000000 -1.000000
vn 0.000000 0.000000 -1.000000
vn 0.000000 0.000000 -1.000000
vn -0.000001 0.000000 -1.000000
vn -0.000001 0.000000 -1.000000
vn -0.000001 0.000000 -1.000000
vn -0.000001 0.000000 -1.000000
vn -0.000000 0.000000 -1.000000
vn -0.000000 0.000000 -1.000000
vn -0.000000 0.000000 -1.000000
vn -0.000000 0.000000 -1.000000
vn 0.000900 0.008068 -0.999967
vn 0.000900 0.008068 -0.999967
vn 0.000900 0.008068 -0.999967
vn 0.000900 0.008068 -0.999967
vn -0.004967 -0.004609 -0.999977
vn -0.004967 -0.004609 -0.999977
vn -0.004967 -0.004609 -0.999977
vn -0.004967 -0.004609 -0.999977
vn 0.006000 0.003072 -0.999977
vn 0.006000 0.003072 -0.999977
vn 0.006000 0.003072 -0.999977
vn 0.006000 0.003072 -0.999977
vn -0.005999 0.003071 -0.999977
vn -0.005999 0.003071 -0.999977
vn -0.005999 0.003071 -0.999977
vn -0.005999 0.003071 -0.999977
vn 0.004956 -0.004599 -0.999977
vn 0.004956 -0.004599 -0.999977
vn 0.004956 -0.004599 -0.999977
vn 0.004956 -0.004599 -0.999977
vn -0.012545 -0.012906 -0.999838
vn -0.012545 -0.012906 -0.999838
vn -0.012545 -0.012906 -0.999838
vn -0.012545 -0.012906 -0.999838
vn -0.007704 -0.015627 -0.999848
vn -0.007704 -0.015627 -0.999848
vn -0.007704 -0.015627 -0.999848
vn -0.007704 -0.015627 -0.999848
vn 0.000000 0.000000 -1.000000
vn 0.000000 0.000000 -1.000000
vn 0.000000 0.000000 -1.000000
vn 0.000000 0.000000 -1.000000
vn 0.000000 0.000000 -1.000000
vn 0.000000 0.000000 -1.000000
vn 0.000000 0.000000 -1.000000
vn 0.000000 0.000000 -1.000000
vn -0.000001 0.000000 -1.000000
vn -0.000001 0.000000 -1.000000
vn -0.000001 0.000000 -1.000000
vn -0.000001 0.000000 -1.000000
vn 0.000000 0.000000 -1.000000
vn 0.000000 0.000000 -1.000000
vn 0.000000 0.000000 -1.000000
vn 0.000000 0.000000 -1.000000
vn -0.000001 0.000000 -1.000000
vn -0.000001 0.000000 -1.000000
vn -0.000001 0.000000 -1.000000
vn -0.000001 0.000000 -1.000000
vn -0.000000 0.000000 -1.000000
vn -0.000000 0.000000 -1.000000
vn -0.000000 0.000000 -1.000000
vn -0.000000 0.000000 -1.000000
vn -0.000001 0.000000 -1.000000
vn -0.000001 0.000000 -1.000000
vn -0.000001 0.000000 -1.000000
vn -0.000001 0.000000 -1.000000
vn 0.000001 0.000000 -1.000000
vn 0.000001 0.000000 -1.000000
vn 0.000001 0.000000 -1.000000
vn 0.000001 0.000000 -1.000000
vn -0.000001 0.000000 -1.000000
vn -0.000001 0.000000 -1.000000
vn -0.000001 0.000000 -1.000000
vn -0.000001 0.000000 -1.000000
vn 0.000000 0.000000 -1.000000
vn 0.000000 0.000000 -1.000000
vn 0.000000 0.000000 -1.000000
vn 0.000000 0.000000 -1.000000
vn -0.008735 0.008821 -0.999923
vn -0.031621 0.025772 -0.999168
vn -0.755141 0.560192 -0.340509
vn 0.000159 -0.000043 -1.000000
vn 0.000159 -0.000043 -1.000000
vn 0.000159 -0.000043 -1.000000
vn 0.000159 -0.000043 -1.000000
vn 0.000000 0.000000 -1.000000
vn 0.000000 0.000000 -1.000000
vn 0.000000 0.000000 -1.000000
vn 0.000000 0.000000 -1.000000
vn 0.000000 0.000000 -1.000000
vn 0.000000 0.000000 -1.000000
vn 0.000000 0.000000 -1.000000
vn 0.000000 0.000000 -1.000000
vn -0.000001 0.000000 -1.000000
vn -0.000001 0.000000 -1.000000
vn -0.000001 0.000000 -1.000000
vn -0.000001 0.000000 -1.000000
vn -0.000001 0.000000 -1.000000
vn -0.000001 0.000000 -1.000000
vn -0.000001 0.000000 -1.000000
vn -0.000001 0.000000 -1.000000
vn 0.000001 0.000000 -1.000000
vn 0.000001 0.000000 -1.000000
vn 0.000001 0.000000 -1.000000
vn 0.000001 0.000000 -1.000000
vn 0.000000 0.000000 -1.000000
vn 0.000000 0.000000 -1.000000
vn 0.000000 0.000000 -1.000000
vn 0.000000 0.000000 -1.000000
vn 0.007716 -0.015643 -0.999848
vn 0.007716 -0.015643 -0.999848
vn 0.007716 -0.015643 -0.999848
vn 0.007716 -0.015643 -0.999848
vn 0.012628 -0.012926 -0.999837
vn 0.012628 -0.012926 -0.999837
vn 0.012628 -0.012926 -0.999837
vn 0.012628 -0.012926 -0.999837
vn -0.000247 -0.000066 -1.000000
vn -0.000247 -0.000066 -1.000000
vn -0.000247 -0.000066 -1.000000
vn -0.000247 -0.000066 -1.000000
vn 0.008761 0.006179 -0.999943
vn 0.013029 0.007674 -0.999886
vn 0.007571 0.005762 -0.999955
vn 0.007571 0.005762 -0.999955
vn -0.000001 0.000000 -1.000000
vn -0.000001 0.000000 -1.000000
vn -0.000001 0.000000 -1.000000
vn -0.000001 0.000000 -1.000000
vn 0.000000 0.000000 -1.000000
vn 0.000000 0.000000 -1.000000
vn 0.000000 0.000000 -1.000000
vn 0.000000 0.000000 -1.000000
vn -0.000001 0.000000 -1.000000
vn -0.000001 0.000000 -1.000000
vn -0.000001 0.000000 -1.000000
vn -0.000001 0.000000 -1.000000
vn 0.000001 0.000000 -1.000000
vn 0.000001 0.000000 -1.000000
vn 0.000001 0.000000 -1.000000
vn 0.000001 0.000000 -1.000000
vn 0.012915 0.009263 -0.999874
vn 0.012915 0.009263 -0.999874
vn 0.012915 0.009263 -0.999874
vn 0.012915 0.009263 -0.999874
vn -0.012816 0.009318 -0.999875
vn -0.012816 0.009318 -0.999874
vn -0.012816 0.009318 -0.999874
vn -0.012816 0.009318 -0.999874
vn -0.000001 0.000000 -1.000000
vn -0.000001 0.000000 -1.000000
vn -0.000001 0.000000 -1.000000
vn -0.000001 0.000000 -1.000000
vn 0.000001 0.000000 -1.000000
vn 0.000001 0.000000 -1.000000
vn 0.000001 0.000000 -1.000000
vn 0.000001 0.000000 -1.000000
vn 0.000001 0.000000 -1.000000
vn 0.000001 0.000000 -1.000000
vn 0.000001 0.000000 -1.000000
vn 0.000001 0.000000 -1.000000
vn -0.000001 0.000000 -1.000000
vn -0.000001 0.000000 -1.000000
vn -0.000001 0.000000 -1.000000
vn -0.000001 0.000000 -1.000000
vn 0.000000 0.000000 -1.000000
vn 0.000000 0.000000 -1.000000
vn 0.000000 0.000000 -1.000000
vn 0.000000 0.000000 -1.000000
vn 0.000000 0.000000 -1.000000
vn 0.000000 0.000000 -1.000000
vn 0.000000 0.000000 -1.000000
vn 0.000000 0.000000 -1.000000
vn 0.000000 0.000000 -1.000000
vn 0.000000 0.000000 -1.000000
vn 0.000000 0.000000 -1.000000
vn 0.000000 0.000000 -1.000000
vn 0.000001 0.000000 -1.000000
vn 0.000001 0.000000 -1.000000
vn 0.000001 0.000000 -1.000000
vn 0.000001 0.000000 -1.000000
vn 0.002182 0.017895 -0.999838
vn 0.002182 0.017895 -0.999838
vn 0.002182 0.017895 -0.999838
vn -0.002199 0.017890 -0.999838
vn -0.002199 0.017890 -0.999838
vn -0.002199 0.017890 -0.999838
vn 0.026506 0.012395 -0.999572
vn -0.008698 0.008794 -0.999924
vn -0.008698 0.008794 -0.999924
s off
g frame_E2
usemtl initialShadingGroup
f 16/13/1 15/12/2 21/15/3 20/14/4
f 15/12/5 14/11/6 22/16/7 21/15/8
f 14/11/9 13/10/10 23/17/11 22/16/12
f 13/10/13 12/9/14 24/18/15 23/17/16
f 12/9/17 11/8/18 25/19/19 24/18/20
f 11/8/21 10/7/22 26/20/23 25/19/24
f 7/6/25 6/5/26 30/22/27 29/21/28
f 6/5/29 5/4/30 31/23/31 30/22/32
f 4/3/33 3/2/34 33/25/35 32/24/36
f 3/2/37 2/1/38 34/26/39 33/25/40
f 26/42/41 46/43/42 9/28/43 27/27/44
f 46/43/45 45/44/46 47/29/47 9/28/48
f 45/44/49 44/45/50 48/30/51 47/29/52
f 44/45/53 43/46/54 49/31/55 48/30/56
f 43/46/57 42/47/58 50/32/59 49/31/60
f 42/47/61 41/48/62 51/33/63 50/32/64
f 41/48/65 40/49/66 52/34/67 51/33/68
f 40/49/69 39/50/70 53/35/71 52/34/72
f 39/50/73 38/51/74 54/36/75 53/35/76
f 38/51/77 37/52/78 55/37/79 54/36/80
f 37/52/81 36/53/82 56/38/83 55/37/84
f 36/53/85 35/54/86 57/39/87 56/38/88
s 1
f 8/40/89 102/116/90 7/55/91
s off
f 7/55/92 29/56/93 28/41/94 8/40/95
f 58/72/96 69/73/97 70/58/98 71/57/99
f 69/73/100 68/74/101 72/59/102 70/58/103
f 68/74/104 67/75/105 73/60/106 72/59/107
f 67/75/108 66/76/109 74/61/110 73/60/111
f 66/76/112 65/77/113 75/62/114 74/61/115
f 65/77/116 64/78/117 76/63/118 75/62/119
f 64/78/120 63/79/121 17/64/122 76/63/123
f 63/79/124 20/80/125 19/65/126 17/64/127
f 34/81/128 2/82/129 1/67/130 18/66/131
s 2
f 1/67/132 101/115/133 62/83/134 77/68/135
s off
f 62/83/136 61/84/137 78/69/138 77/68/139
f 61/84/140 60/85/141 79/70/142 78/69/143
f 60/85/144 59/86/145 80/71/146 79/70/147
f 59/86/148 58/72/149 71/57/150 80/71/151
f 81/98/152 91/99/153 4/88/154 92/87/155
f 90/100/156 89/101/157 93/90/158 5/89/159
f 89/101/160 88/102/161 94/91/162 93/90/163
f 88/102/164 87/103/165 95/92/166 94/91/167
f 87/103/168 86/104/169 96/93/170 95/92/171
f 86/104/172 85/105/173 97/94/174 96/93/175
f 85/105/176 84/106/177 98/95/178 97/94/179
f 84/106/180 83/107/181 99/96/182 98/95/183
f 83/107/184 82/108/185 100/97/186 99/96/187
f 82/108/188 81/98/189 92/87/190 100/97/191
f 46/109/192 26/110/193 10/111/194
f 20/112/195 63/113/196 16/114/197
s 2
f 2/82/198 101/115/133 1/67/132
s 1
f 35/54/199 102/116/90 8/40/89 57/39/200
