# This file uses centimeters as units for non-parametric coordinates.

mtllib PuertaT.mtl
g default
v 0.000000 2.117975 0.000000
v 0.000000 2.424581 0.000000
v 4.159204 -1.215782 -0.000000
v 4.159437 -0.909177 0.000000
v 0.000000 -2.017289 0.000000
v 0.000000 -1.710683 0.000000
v 1.757592 0.527815 0.000000
v 1.610923 0.344753 -0.000000
v 2.395985 -2.140185 0.000000
v 2.475713 -2.424581 -0.000000
v -4.159204 -1.215782 -0.000000
v -4.159437 -0.909177 0.000000
v -1.757592 0.527815 0.000000
v -1.610923 0.344753 -0.000000
v -2.395985 -2.140185 0.000000
v -2.475713 -2.424581 -0.000000
v -3.943846 -1.064673 -0.000000
v 3.943846 -1.064673 -0.000000
vt 0.000000 0.000000
vt 1.000000 1.000000
vt 0.000000 1.000000
vt 0.000000 0.000000
vt 1.000000 1.000000
vt 0.000000 0.838129
vt 1.000000 0.803665
vt 0.000000 0.495854
vt 1.000000 0.514673
vt 0.000000 0.838129
vt 1.000000 0.803665
vt 0.000000 1.000000
vt 0.000000 0.495854
vt 1.000000 0.514673
vt 1.000000 1.000000
vt 0.000000 1.000000
vt 1.000000 0.000000
vt 1.000000 0.000000
vt 0.000000 0.747927
vt 1.000000 0.901832
vt 1.000000 0.901832
vt 0.000000 0.747927
vn -0.000000 0.000000 -1.000000
vn -0.000000 0.000000 -1.000000
vn -0.000000 0.000000 -1.000000
vn 0.000000 0.000000 -1.000000
vn 0.000000 0.000000 -1.000000
vn 0.000000 0.000000 -1.000000
vn 0.000000 0.000000 -1.000000
vn 0.000000 0.000000 -1.000000
vn 0.000000 0.000000 -1.000000
vn 0.000000 0.000000 -1.000000
vn 0.000000 0.000000 -1.000000
vn 0.000000 0.000000 -1.000000
vn 0.000000 0.000000 -1.000000
vn 0.000000 -0.000000 -1.000000
vn 0.000000 -0.000000 -1.000000
vn 0.000000 -0.000000 -1.000000
vn 0.000000 -0.000000 -1.000000
vn 0.000000 -0.000000 -1.000000
vn 0.000000 -0.000000 -1.000000
vn 0.000000 -0.000000 -1.000000
vn 0.000000 -0.000000 -1.000000
vn 0.000000 -0.000000 -1.000000
vn 0.000000 -0.000000 -1.000000
vn 0.000000 -0.000000 -1.000000
vn 0.000000 -0.000000 -1.000000
vn 0.000000 -0.000000 -1.000000
s off
g frameT
usemtl initialShadingGroup
f 17/19/1 11/15/2 12/16/3
f 14/11/4 17/20/5 12/12/6 13/10/7 2/1/8 7/6/9 4/3/10 18/21/11 8/7/12 1/17/13
f 18/21/14 4/3/15 3/2/16
f 16/14/17 11/15/18 17/19/19 15/13/20 6/4/21 9/8/22 18/22/23 3/5/24 10/9/25 5/18/26
