# This file uses centimeters as units for non-parametric coordinates.

mtllib ESPACIO.mtl
g default
v 0.948727 -0.000000 0.317735
v 1.179600 -0.000000 0.317735
v 1.410474 -0.000000 0.317735
v 1.641347 -0.000000 0.317735
v 0.948727 -0.000000 0.190641
v 1.179600 -0.000000 0.190641
v 1.410474 -0.000000 0.190641
v 1.641347 -0.000000 0.190641
v 0.948727 -0.000000 0.063547
v 1.179600 -0.000000 0.063547
v 1.410474 -0.000000 0.063547
v 1.641347 -0.000000 0.063547
v 0.948727 0.000000 -0.063547
v 1.179600 0.000000 -0.063547
v 1.410474 0.000000 -0.063547
v 1.641347 0.000000 -0.063547
v 0.948727 0.000000 -0.190641
v 1.179600 0.000000 -0.190641
v 1.410474 0.000000 -0.190641
v 1.641347 0.000000 -0.190641
v 0.948727 0.000000 -0.317735
v 1.179600 0.000000 -0.317735
v 1.410474 0.000000 -0.317735
v 1.641347 0.000000 -0.317735
v 1.748876 -0.000000 0.317735
v 1.979749 -0.000000 0.317735
v 2.210622 -0.000000 0.317735
v 2.441495 -0.000000 0.317735
v 1.748876 -0.000000 0.190641
v 1.979749 -0.000000 0.190641
v 2.210622 -0.000000 0.190641
v 2.441495 -0.000000 0.190641
v 1.748876 -0.000000 0.063547
v 1.979749 -0.000000 0.063547
v 2.210622 -0.000000 0.063547
v 2.441495 -0.000000 0.063547
v 1.748876 0.000000 -0.063547
v 1.979749 0.000000 -0.063547
v 2.210622 0.000000 -0.063547
v 2.441495 0.000000 -0.063547
v 1.748876 0.000000 -0.190641
v 1.979749 0.000000 -0.190641
v 2.210622 0.000000 -0.190641
v 2.441495 0.000000 -0.190641
v 1.748876 0.000000 -0.317735
v 1.979749 0.000000 -0.317735
v 2.210622 0.000000 -0.317735
v 2.441495 0.000000 -0.317735
v -2.441495 -0.000000 0.317735
v -2.210622 -0.000000 0.317735
v -1.979749 -0.000000 0.317735
v -1.748876 -0.000000 0.317735
v -2.441495 -0.000000 0.190641
v -2.210622 -0.000000 0.190641
v -1.979749 -0.000000 0.190641
v -1.748876 -0.000000 0.190641
v -2.441495 -0.000000 0.063547
v -2.210622 -0.000000 0.063547
v -1.979749 -0.000000 0.063547
v -1.748876 -0.000000 0.063547
v -2.441495 0.000000 -0.063547
v -2.210622 0.000000 -0.063547
v -1.979749 0.000000 -0.063547
v -1.748876 0.000000 -0.063547
v -2.441495 0.000000 -0.190641
v -2.210622 0.000000 -0.190641
v -1.979749 0.000000 -0.190641
v -1.748876 0.000000 -0.190641
v -2.441495 0.000000 -0.317735
v -2.210622 0.000000 -0.317735
v -1.979749 0.000000 -0.317735
v -1.748876 0.000000 -0.317735
v -1.658743 -0.000000 0.317735
v -1.427870 -0.000000 0.317735
v -1.658743 -0.000000 0.190641
v -1.427870 -0.000000 0.190641
v -1.658743 -0.000000 0.063547
v -1.427870 -0.000000 0.063547
v -1.658743 0.000000 -0.063547
v -1.427870 0.000000 -0.063547
v -1.658743 0.000000 -0.190641
v -1.427870 0.000000 -0.190641
v -1.658743 0.000000 -0.317735
v -1.427870 0.000000 -0.317735
v -1.345635 -0.000000 0.317735
v -1.114762 -0.000000 0.317735
v -0.883888 -0.000000 0.317735
v -0.653015 -0.000000 0.317735
v -1.345635 -0.000000 0.190641
v -1.114762 -0.000000 0.190641
v -0.883888 -0.000000 0.190641
v -0.653015 -0.000000 0.190641
v -0.883888 -0.000000 0.063547
v -0.653015 -0.000000 0.063547
v -0.883888 0.000000 -0.063547
v -0.653015 0.000000 -0.063547
v -1.345635 0.000000 -0.190641
v -1.114762 0.000000 -0.190641
v -0.883888 0.000000 -0.190641
v -0.653015 0.000000 -0.190641
v -1.345635 0.000000 -0.317735
v -1.114762 0.000000 -0.317735
v -0.883888 0.000000 -0.317735
v -0.653015 0.000000 -0.317735
v -0.563592 -0.000000 0.317735
v -0.332718 -0.000000 0.317735
v -0.101845 -0.000000 0.317735
v 0.129028 -0.000000 0.317735
v -0.563592 -0.000000 0.190641
v -0.332718 -0.000000 0.190641
v -0.101845 -0.000000 0.190641
v 0.129028 -0.000000 0.190641
v -0.563592 -0.000000 0.063547
v -0.332718 -0.000000 0.063547
v -0.101845 -0.000000 0.063547
v 0.129028 -0.000000 0.063547
v -0.563592 0.000000 -0.063547
v -0.332718 0.000000 -0.063547
v -0.101845 0.000000 -0.063547
v 0.129028 0.000000 -0.063547
v -0.563592 0.000000 -0.190641
v -0.332718 0.000000 -0.190641
v -0.101845 0.000000 -0.190641
v 0.129028 0.000000 -0.190641
v -0.563592 0.000000 -0.317735
v -0.332718 0.000000 -0.317735
v -0.101845 0.000000 -0.317735
v 0.129028 0.000000 -0.317735
v 0.174866 -0.000000 0.317735
v 0.405739 -0.000000 0.317735
v 0.636612 -0.000000 0.317735
v 0.867485 -0.000000 0.317735
v 0.174866 -0.000000 0.190641
v 0.405739 -0.000000 0.190641
v 0.636612 -0.000000 0.190641
v 0.867485 -0.000000 0.190641
v 0.174866 -0.000000 0.063547
v 0.405739 -0.000000 0.063547
v 0.636612 -0.000000 0.063547
v 0.867485 -0.000000 0.063547
v 0.174866 0.000000 -0.063547
v 0.405739 0.000000 -0.063547
v 0.636612 0.000000 -0.063547
v 0.867485 0.000000 -0.063547
v 0.636612 0.000000 -0.190641
v 0.867485 0.000000 -0.190641
v 0.636612 0.000000 -0.317735
v 0.867485 0.000000 -0.317735
vt 0.200000 0.000000
vt 0.400000 0.000000
vt 0.600000 0.000000
vt 0.800000 0.000000
vt 0.200000 0.200000
vt 0.400000 0.200000
vt 0.600000 0.200000
vt 0.800000 0.200000
vt 0.200000 0.400000
vt 0.400000 0.400000
vt 0.600000 0.400000
vt 0.800000 0.400000
vt 0.200000 0.600000
vt 0.400000 0.600000
vt 0.600000 0.600000
vt 0.800000 0.600000
vt 0.200000 0.800000
vt 0.400000 0.800000
vt 0.600000 0.800000
vt 0.800000 0.800000
vt 0.200000 1.000000
vt 0.400000 1.000000
vt 0.600000 1.000000
vt 0.800000 1.000000
vt 0.200000 0.000000
vt 0.400000 0.000000
vt 0.400000 0.200000
vt 0.200000 0.200000
vt 0.600000 0.000000
vt 0.600000 0.200000
vt 0.800000 0.000000
vt 0.800000 0.200000
vt 0.800000 0.400000
vt 0.600000 0.400000
vt 0.200000 0.400000
vt 0.400000 0.400000
vt 0.400000 0.600000
vt 0.200000 0.600000
vt 0.600000 0.600000
vt 0.800000 0.600000
vt 0.800000 0.800000
vt 0.600000 0.800000
vt 0.200000 0.800000
vt 0.400000 0.800000
vt 0.400000 1.000000
vt 0.200000 1.000000
vt 0.600000 1.000000
vt 0.800000 1.000000
vt 0.200000 0.000000
vt 0.400000 0.000000
vt 0.400000 0.200000
vt 0.200000 0.200000
vt 0.600000 0.000000
vt 0.600000 0.200000
vt 0.800000 0.000000
vt 0.800000 0.200000
vt 0.400000 0.400000
vt 0.200000 0.400000
vt 0.800000 0.400000
vt 0.600000 0.400000
vt 0.400000 0.600000
vt 0.200000 0.600000
vt 0.800000 0.600000
vt 0.600000 0.600000
vt 0.400000 0.800000
vt 0.200000 0.800000
vt 0.800000 0.800000
vt 0.600000 0.800000
vt 0.400000 1.000000
vt 0.200000 1.000000
vt 0.600000 1.000000
vt 0.800000 1.000000
vt 0.400000 0.000000
vt 0.600000 0.000000
vt 0.600000 0.200000
vt 0.400000 0.200000
vt 0.600000 0.400000
vt 0.400000 0.400000
vt 0.600000 0.600000
vt 0.400000 0.600000
vt 0.600000 0.800000
vt 0.400000 0.800000
vt 0.600000 1.000000
vt 0.400000 1.000000
vt 0.200000 0.000000
vt 0.400000 0.000000
vt 0.400000 0.200000
vt 0.200000 0.200000
vt 0.600000 0.000000
vt 0.600000 0.200000
vt 0.800000 0.000000
vt 0.800000 0.200000
vt 0.800000 0.400000
vt 0.600000 0.400000
vt 0.800000 0.600000
vt 0.600000 0.600000
vt 0.800000 0.800000
vt 0.600000 0.800000
vt 0.200000 0.800000
vt 0.400000 0.800000
vt 0.400000 1.000000
vt 0.200000 1.000000
vt 0.600000 1.000000
vt 0.800000 1.000000
vt 0.200000 0.000000
vt 0.400000 0.000000
vt 0.400000 0.200000
vt 0.200000 0.200000
vt 0.600000 0.000000
vt 0.600000 0.200000
vt 0.800000 0.000000
vt 0.800000 0.200000
vt 0.400000 0.400000
vt 0.200000 0.400000
vt 0.800000 0.400000
vt 0.600000 0.400000
vt 0.400000 0.600000
vt 0.200000 0.600000
vt 0.600000 0.600000
vt 0.800000 0.600000
vt 0.400000 0.800000
vt 0.200000 0.800000
vt 0.800000 0.800000
vt 0.600000 0.800000
vt 0.400000 1.000000
vt 0.200000 1.000000
vt 0.800000 1.000000
vt 0.600000 1.000000
vt 0.200000 0.000000
vt 0.400000 0.000000
vt 0.400000 0.200000
vt 0.200000 0.200000
vt 0.600000 0.000000
vt 0.600000 0.200000
vt 0.800000 0.000000
vt 0.800000 0.200000
vt 0.400000 0.400000
vt 0.200000 0.400000
vt 0.800000 0.400000
vt 0.600000 0.400000
vt 0.400000 0.600000
vt 0.200000 0.600000
vt 0.600000 0.600000
vt 0.800000 0.600000
vt 0.800000 0.800000
vt 0.600000 0.800000
vt 0.800000 1.000000
vt 0.600000 1.000000
vn 0.000000 1.000000 0.000000
vn 0.000000 1.000000 0.000000
vn 0.000000 1.000000 0.000000
vn 0.000000 1.000000 0.000000
vn 0.000000 1.000000 0.000000
vn 0.000000 1.000000 0.000000
vn 0.000000 1.000000 0.000000
vn 0.000000 1.000000 0.000000
vn 0.000000 1.000000 0.000000
vn 0.000000 1.000000 0.000000
vn 0.000000 1.000000 0.000000
vn 0.000000 1.000000 0.000000
vn 0.000000 1.000000 0.000000
vn 0.000000 1.000000 0.000000
vn 0.000000 1.000000 0.000000
vn 0.000000 1.000000 0.000000
vn 0.000000 1.000000 0.000000
vn 0.000000 1.000000 0.000000
vn 0.000000 1.000000 0.000000
vn 0.000000 1.000000 0.000000
vn 0.000000 1.000000 0.000000
vn 0.000000 1.000000 0.000000
vn 0.000000 1.000000 0.000000
vn 0.000000 1.000000 0.000000
vn 0.000000 1.000000 0.000000
vn 0.000000 1.000000 0.000000
vn 0.000000 1.000000 0.000000
vn 0.000000 1.000000 0.000000
vn 0.000000 1.000000 0.000000
vn 0.000000 1.000000 0.000000
vn 0.000000 1.000000 0.000000
vn 0.000000 1.000000 0.000000
vn 0.000000 1.000000 0.000000
vn 0.000000 1.000000 0.000000
vn 0.000000 1.000000 0.000000
vn 0.000000 1.000000 0.000000
vn 0.000000 1.000000 0.000000
vn 0.000000 1.000000 0.000000
vn 0.000000 1.000000 0.000000
vn 0.000000 1.000000 0.000000
vn 0.000000 1.000000 0.000000
vn 0.000000 1.000000 0.000000
vn 0.000000 1.000000 0.000000
vn 0.000000 1.000000 0.000000
vn 0.000000 1.000000 0.000000
vn 0.000000 1.000000 0.000000
vn 0.000000 1.000000 0.000000
vn 0.000000 1.000000 0.000000
vn 0.000000 1.000000 0.000000
vn 0.000000 1.000000 0.000000
vn 0.000000 1.000000 0.000000
vn 0.000000 1.000000 0.000000
vn 0.000000 1.000000 0.000000
vn 0.000000 1.000000 0.000000
vn 0.000000 1.000000 0.000000
vn 0.000000 1.000000 0.000000
vn 0.000000 1.000000 0.000000
vn 0.000000 1.000000 0.000000
vn 0.000000 1.000000 0.000000
vn 0.000000 1.000000 0.000000
vn 0.000000 1.000000 0.000000
vn 0.000000 1.000000 0.000000
vn 0.000000 1.000000 0.000000
vn 0.000000 1.000000 0.000000
vn 0.000000 1.000000 0.000000
vn 0.000000 1.000000 0.000000
vn 0.000000 1.000000 0.000000
vn 0.000000 1.000000 0.000000
vn 0.000000 1.000000 0.000000
vn 0.000000 1.000000 0.000000
vn 0.000000 1.000000 0.000000
vn 0.000000 1.000000 0.000000
vn 0.000000 1.000000 0.000000
vn 0.000000 1.000000 0.000000
vn 0.000000 1.000000 0.000000
vn 0.000000 1.000000 0.000000
vn 0.000000 1.000000 0.000000
vn 0.000000 1.000000 0.000000
vn 0.000000 1.000000 0.000000
vn 0.000000 1.000000 0.000000
vn 0.000000 1.000000 0.000000
vn 0.000000 1.000000 0.000000
vn 0.000000 1.000000 0.000000
vn 0.000000 1.000000 0.000000
vn 0.000000 1.000000 0.000000
vn 0.000000 1.000000 0.000000
vn 0.000000 1.000000 0.000000
vn 0.000000 1.000000 0.000000
vn 0.000000 1.000000 0.000000
vn 0.000000 1.000000 0.000000
vn 0.000000 1.000000 0.000000
vn 0.000000 1.000000 0.000000
vn 0.000000 1.000000 0.000000
vn 0.000000 1.000000 0.000000
vn 0.000000 1.000000 0.000000
vn 0.000000 1.000000 0.000000
vn 0.000000 1.000000 0.000000
vn 0.000000 1.000000 0.000000
vn 0.000000 1.000000 0.000000
vn 0.000000 1.000000 0.000000
vn 0.000000 1.000000 0.000000
vn 0.000000 1.000000 0.000000
vn 0.000000 1.000000 0.000000
vn 0.000000 1.000000 0.000000
vn 0.000000 1.000000 0.000000
vn 0.000000 1.000000 0.000000
vn 0.000000 1.000000 0.000000
vn 0.000000 1.000000 0.000000
vn 0.000000 1.000000 0.000000
vn 0.000000 1.000000 0.000000
vn 0.000000 1.000000 0.000000
vn 0.000000 1.000000 0.000000
vn 0.000000 1.000000 0.000000
vn 0.000000 1.000000 0.000000
vn 0.000000 1.000000 0.000000
vn 0.000000 1.000000 0.000000
vn 0.000000 1.000000 0.000000
vn 0.000000 1.000000 0.000000
vn 0.000000 1.000000 0.000000
vn 0.000000 1.000000 0.000000
vn 0.000000 1.000000 0.000000
vn 0.000000 1.000000 0.000000
vn 0.000000 1.000000 0.000000
vn 0.000000 1.000000 0.000000
vn 0.000000 1.000000 0.000000
vn 0.000000 1.000000 0.000000
vn 0.000000 1.000000 0.000000
vn 0.000000 1.000000 0.000000
vn 0.000000 1.000000 0.000000
vn 0.000000 1.000000 0.000000
vn 0.000000 1.000000 0.000000
vn 0.000000 1.000000 0.000000
vn 0.000000 1.000000 0.000000
vn 0.000000 1.000000 0.000000
vn 0.000000 1.000000 0.000000
vn 0.000000 1.000000 0.000000
vn 0.000000 1.000000 0.000000
vn 0.000000 1.000000 0.000000
vn 0.000000 1.000000 0.000000
vn 0.000000 1.000000 0.000000
vn 0.000000 1.000000 0.000000
vn 0.000000 1.000000 0.000000
vn 0.000000 1.000000 0.000000
vn 0.000000 1.000000 0.000000
vn 0.000000 1.000000 0.000000
vn 0.000000 1.000000 0.000000
vn 0.000000 1.000000 0.000000
vn 0.000000 1.000000 0.000000
s 1
g pPlane8
usemtl initialShadingGroup
f 1/1/1 2/2/2 6/6/3 5/5/4
f 2/2/2 3/3/5 7/7/6 6/6/3
f 3/3/5 4/4/7 8/8/8 7/7/6
f 7/7/6 8/8/8 12/12/9 11/11/10
f 9/9/11 10/10/12 14/14/13 13/13/14
f 10/10/12 11/11/10 15/15/15 14/14/13
f 11/11/10 12/12/9 16/16/16 15/15/15
f 13/13/14 14/14/13 18/18/17 17/17/18
f 17/17/18 18/18/17 22/22/19 21/21/20
f 18/18/17 19/19/21 23/23/22 22/22/19
f 19/19/21 20/20/23 24/24/24 23/23/22
s 3
f 25/25/25 26/26/26 30/27/27 29/28/28
f 26/26/26 27/29/29 31/30/30 30/27/27
f 27/29/29 28/31/31 32/32/32 31/30/30
f 31/30/30 32/32/32 36/33/33 35/34/34
f 33/35/35 34/36/36 38/37/37 37/38/38
f 34/36/36 35/34/34 39/39/39 38/37/37
f 35/34/34 36/33/33 40/40/40 39/39/39
f 39/39/39 40/40/40 44/41/41 43/42/42
f 41/43/43 42/44/44 46/45/45 45/46/46
f 42/44/44 43/42/42 47/47/47 46/45/45
f 43/42/42 44/41/41 48/48/48 47/47/47
s 6
f 49/49/49 50/50/50 54/51/51 53/52/52
f 50/50/50 51/53/53 55/54/54 54/51/51
f 51/53/53 52/55/55 56/56/56 55/54/54
f 53/52/52 54/51/51 58/57/57 57/58/58
f 55/54/54 56/56/56 60/59/59 59/60/60
f 57/58/58 58/57/57 62/61/61 61/62/62
f 59/60/60 60/59/59 64/63/63 63/64/64
f 61/62/62 62/61/61 66/65/65 65/66/66
f 63/64/64 64/63/63 68/67/67 67/68/68
f 65/66/66 66/65/65 70/69/69 69/70/70
f 66/65/65 67/68/68 71/71/71 70/69/69
f 67/68/68 68/67/67 72/72/72 71/71/71
s 7
f 73/73/73 74/74/74 76/75/75 75/76/76
f 75/76/76 76/75/75 78/77/77 77/78/78
f 77/78/78 78/77/77 80/79/79 79/80/80
f 79/80/80 80/79/79 82/81/81 81/82/82
f 81/82/82 82/81/81 84/83/83 83/84/84
s 8
f 85/85/85 86/86/86 90/87/87 89/88/88
f 86/86/86 87/89/89 91/90/90 90/87/87
f 87/89/89 88/91/91 92/92/92 91/90/90
f 91/90/90 92/92/92 94/93/93 93/94/94
f 93/94/94 94/93/93 96/95/95 95/96/96
f 95/96/96 96/95/95 100/97/97 99/98/98
f 97/99/99 98/100/100 102/101/101 101/102/102
f 98/100/100 99/98/98 103/103/103 102/101/101
f 99/98/98 100/97/97 104/104/104 103/103/103
s 10
f 105/105/105 106/106/106 110/107/107 109/108/108
f 106/106/106 107/109/109 111/110/110 110/107/107
f 107/109/109 108/111/111 112/112/112 111/110/110
f 109/108/108 110/107/107 114/113/113 113/114/114
f 111/110/110 112/112/112 116/115/115 115/116/116
f 113/114/114 114/113/113 118/117/117 117/118/118
f 114/113/113 115/116/116 119/119/119 118/117/117
f 115/116/116 116/115/115 120/120/120 119/119/119
f 117/118/118 118/117/117 122/121/121 121/122/122
f 119/119/119 120/120/120 124/123/123 123/124/124
f 121/122/122 122/121/121 126/125/125 125/126/126
f 123/124/124 124/123/123 128/127/127 127/128/128
s 11
f 129/129/129 130/130/130 134/131/131 133/132/132
f 130/130/130 131/133/133 135/134/134 134/131/131
f 131/133/133 132/135/135 136/136/136 135/134/134
f 133/132/132 134/131/131 138/137/137 137/138/138
f 135/134/134 136/136/136 140/139/139 139/140/140
f 137/138/138 138/137/137 142/141/141 141/142/142
f 138/137/137 139/140/140 143/143/143 142/141/141
f 139/140/140 140/139/139 144/144/144 143/143/143
f 143/143/143 144/144/144 146/145/145 145/146/146
f 145/146/146 146/145/145 148/147/147 147/148/148
