# This file uses centimeters as units for non-parametric coordinates.

mtllib SPACE.mtl
g default
v -0.109468 -0.000000 0.300000
v -0.009468 -0.000000 0.300000
v 0.090532 -0.000000 0.300000
v -0.109468 -0.000000 0.200000
v -0.009468 -0.000000 0.200000
v 0.090532 -0.000000 0.200000
v -0.009468 -0.000000 0.100000
v 0.090532 -0.000000 0.100000
v -0.009468 0.000000 0.000000
v 0.090532 0.000000 0.000000
v -0.009468 0.000000 -0.100000
v 0.090532 0.000000 -0.100000
v -0.109468 0.000000 -0.200000
v -0.009468 0.000000 -0.200000
v 0.090532 0.000000 -0.200000
v -0.109468 0.000000 -0.300000
v -0.009468 0.000000 -0.300000
v 0.090532 0.000000 -0.300000
vt 0.500000 0.200000
vt 0.600000 0.200000
vt 0.700000 0.200000
vt 0.500000 0.300000
vt 0.600000 0.300000
vt 0.700000 0.300000
vt 0.600000 0.400000
vt 0.700000 0.400000
vt 0.600000 0.500000
vt 0.700000 0.500000
vt 0.600000 0.600000
vt 0.700000 0.600000
vt 0.500000 0.700000
vt 0.600000 0.700000
vt 0.700000 0.700000
vt 0.500000 0.800000
vt 0.600000 0.800000
vt 0.700000 0.800000
vn 0.000000 1.000000 0.000000
vn 0.000000 1.000000 0.000000
vn 0.000000 1.000000 0.000000
vn 0.000000 1.000000 0.000000
vn 0.000000 1.000000 0.000000
vn 0.000000 1.000000 0.000000
vn 0.000000 1.000000 0.000000
vn 0.000000 1.000000 0.000000
vn 0.000000 1.000000 0.000000
vn 0.000000 1.000000 0.000000
vn 0.000000 1.000000 0.000000
vn 0.000000 1.000000 0.000000
vn 0.000000 1.000000 0.000000
vn 0.000000 1.000000 0.000000
vn 0.000000 1.000000 0.000000
vn 0.000000 1.000000 0.000000
vn 0.000000 1.000000 0.000000
vn 0.000000 1.000000 0.000000
s 1
g pPlane1
usemtl initialShadingGroup
f 1/1/1 2/2/2 5/5/3 4/4/4
f 2/2/2 3/3/5 6/6/6 5/5/3
f 5/5/3 6/6/6 8/8/7 7/7/8
f 7/7/8 8/8/7 10/10/9 9/9/10
f 9/9/10 10/10/9 12/12/11 11/11/12
f 11/11/12 12/12/11 15/15/13 14/14/14
f 13/13/15 14/14/14 17/17/16 16/16/17
f 14/14/14 15/15/13 18/18/18 17/17/16
