# This file uses centimeters as units for non-parametric coordinates.

mtllib BarreraT2.mtl
g default
v 0.084595 9.850863 0.169576
v 1.402661 7.734942 0.169576
v 3.642726 6.641085 0.169576
v 4.426398 4.666871 0.169576
v 1.058143 5.319354 0.169576
v -1.917493 4.054456 0.169576
v -0.964790 7.144235 0.169576
v -1.959646 10.427699 0.169576
v 15.132665 6.265016 0.169576
v 16.378878 -0.000130 0.169576
v -6.257909 15.125295 0.169576
v 0.007247 16.371507 0.169576
v 6.272402 15.125287 0.169576
v 11.583742 11.576360 0.169576
v 15.132661 -6.265286 0.169576
v 11.583735 -11.576628 0.169576
v 6.272392 -15.125553 0.169576
v 0.007237 -16.371770 0.169576
v -6.257919 -15.125551 0.169576
v -11.569261 -11.576625 0.169576
v -15.118184 -6.265280 0.169576
v -16.364400 -0.000125 0.169576
v -15.118181 6.265031 0.169576
v -11.569253 11.576371 0.169576
vt 0.500738 0.062233
vt 0.513318 0.082427
vt 0.534697 0.092867
vt 0.542176 0.111708
vt 0.510030 0.105481
vt 0.481630 0.117553
vt 0.490723 0.088065
vt 0.481228 0.056727
vt 0.644356 0.096456
vt 0.656250 0.156250
vt 0.440206 0.011894
vt 0.500000 0.000000
vt 0.559794 0.011894
vt 0.610485 0.045765
vt 0.644356 0.216044
vt 0.610485 0.266735
vt 0.559794 0.300606
vt 0.500000 0.312500
vt 0.440206 0.300606
vt 0.389515 0.266735
vt 0.355644 0.216044
vt 0.343750 0.156250
vt 0.355644 0.096456
vt 0.389515 0.045765
vn 0.000000 0.000000 -1.000000
vn -0.000000 0.000000 -1.000000
vn -0.000000 0.000000 -1.000000
vn 0.000000 0.000000 -1.000000
vn 0.000000 0.000000 -1.000000
vn -0.000000 0.000000 -1.000000
vn -0.000000 0.000000 -1.000000
vn 0.000000 0.000000 -1.000000
vn 0.000000 0.000000 -1.000000
vn 0.000000 0.000000 -1.000000
vn -0.000000 0.000000 -1.000000
vn -0.000000 0.000000 -1.000000
vn -0.000000 0.000000 -1.000000
vn -0.000000 0.000000 -1.000000
vn -0.000000 0.000000 -1.000000
vn -0.000000 0.000000 -1.000000
vn -0.000000 0.000000 -1.000000
vn -0.000000 0.000000 -1.000000
vn -0.000000 0.000000 -1.000000
vn -0.000000 0.000000 -1.000000
vn -0.000000 0.000000 -1.000000
vn -0.000000 0.000000 -1.000000
vn -0.000000 0.000000 -1.000000
vn -0.000000 0.000000 -1.000000
s 1
g BarreraT2
usemtl initialShadingGroup
f 9/9/1 10/10/2 3/3/3 2/2/4 1/1/5 8/8/6 11/11/7 12/12/8 13/13/9 14/14/10
f 10/10/2 15/15/11 16/16/12 17/17/13 18/18/14 19/19/15 20/20/16 21/21/17 22/22/18 23/23/19 24/24/20 11/11/7 8/8/6 7/7/21 6/6/22 5/5/23 4/4/24 3/3/3
