# This file uses centimeters as units for non-parametric coordinates.

mtllib BarreraT1.mtl
g default
v 15.126433 6.214155 0.169576
v 16.372645 -0.050992 0.169576
v 4.301259 -1.881527 0.169576
v 1.363215 -0.109869 0.169576
v 0.001006 2.822496 0.169576
v -1.361202 -0.109869 0.169576
v -4.299247 -1.881527 0.169576
v -15.124417 -6.316142 0.169576
v -16.370633 -0.050986 0.169576
v -15.124413 6.214170 0.169576
v -11.575486 11.525510 0.169576
v -6.264141 15.074434 0.169576
v 0.001015 16.320646 0.169576
v 6.266169 15.074426 0.169576
v 11.577509 11.525499 0.169576
v 2.396991 -2.822496 0.169576
v 0.001006 -2.134257 0.169576
v -2.394979 -2.822496 0.169576
v 15.126428 -6.316147 0.169576
v 11.577502 -11.627490 0.169576
v 6.266159 -15.176414 0.169576
v 0.001004 -16.422631 0.169576
v -6.264151 -15.176412 0.169576
v -11.575494 -11.627486 0.169576
vt 0.644356 0.096456
vt 0.656250 0.156250
vt 0.541041 0.173721
vt 0.513001 0.156812
vt 0.500000 0.128826
vt 0.486999 0.156812
vt 0.458959 0.173721
vt 0.355644 0.216044
vt 0.343750 0.156250
vt 0.355644 0.096456
vt 0.389515 0.045765
vt 0.440206 0.011894
vt 0.500000 0.000000
vt 0.559794 0.011894
vt 0.610485 0.045765
vt 0.522867 0.182701
vt 0.500000 0.176133
vt 0.477133 0.182701
vt 0.644356 0.216044
vt 0.610485 0.266735
vt 0.559794 0.300606
vt 0.500000 0.312500
vt 0.440206 0.300606
vt 0.389515 0.266735
vn -0.000000 0.000000 -1.000000
vn -0.000000 0.000000 -1.000000
vn -0.000000 0.000000 -1.000000
vn -0.000000 0.000000 -1.000000
vn -0.000000 0.000000 -1.000000
vn -0.000000 0.000000 -1.000000
vn -0.000000 0.000000 -1.000000
vn -0.000000 0.000000 -1.000000
vn -0.000000 0.000000 -1.000000
vn -0.000000 0.000000 -1.000000
vn -0.000000 0.000000 -1.000000
vn -0.000000 0.000000 -1.000000
vn -0.000000 0.000000 -1.000000
vn -0.000000 0.000000 -1.000000
vn -0.000000 0.000000 -1.000000
vn -0.000000 0.000000 -1.000000
vn -0.000000 0.000000 -1.000000
vn -0.000000 0.000000 -1.000000
vn -0.000000 0.000000 -1.000000
vn -0.000000 0.000000 -1.000000
vn -0.000000 0.000000 -1.000000
vn -0.000000 0.000000 -1.000000
vn -0.000000 0.000000 -1.000000
vn -0.000000 0.000000 -1.000000
s 1
g BarreraT1
usemtl initialShadingGroup
f 1/1/1 2/2/2 3/3/3 4/4/4 5/5/5 6/6/6 7/7/7 8/8/8 9/9/9 10/10/10 11/11/11 12/12/12 13/13/13 14/14/14 15/15/15
f 2/2/2 19/19/16 20/20/17 21/21/18 22/22/19 23/23/20 24/24/21 8/8/8 7/7/7 18/18/22 17/17/23 16/16/24 3/3/3
