# This file uses centimeters as units for non-parametric coordinates.

mtllib BarreraC3.mtl
g default
v 7.155677 9.854305 0.366553
v 7.534928 5.732960 0.366553
v 3.087567 5.320437 0.366553
v 2.707716 9.448301 0.366553
v 15.126433 6.265016 0.366553
v 16.372645 -0.000130 0.366553
v 0.001015 16.371507 0.366553
v 6.266169 15.125287 0.366553
v 11.577509 11.576360 0.366553
v 15.126428 -6.265286 0.366553
v 11.577502 -11.576628 0.366553
v 6.266159 -15.125553 0.366553
v 0.001004 -16.371770 0.366553
v -6.264151 -15.125551 0.366553
v -11.575494 -11.576625 0.366553
v -15.124417 -6.265280 0.366553
v -16.370633 -0.000125 0.366553
v -15.124413 6.265031 0.366553
v -11.575486 11.576371 0.366553
v -6.264141 15.125295 0.366553
vt 0.568284 0.062200
vt 0.571903 0.101534
vt 0.529458 0.105471
vt 0.525833 0.066075
vt 0.644356 0.096456
vt 0.656250 0.156250
vt 0.500000 0.000000
vt 0.559794 0.011894
vt 0.610485 0.045765
vt 0.644356 0.216044
vt 0.610485 0.266735
vt 0.559794 0.300606
vt 0.500000 0.312500
vt 0.440206 0.300606
vt 0.389515 0.266735
vt 0.355644 0.216044
vt 0.343750 0.156250
vt 0.355644 0.096456
vt 0.389515 0.045765
vt 0.440206 0.011894
vn 0.000000 0.000000 -1.000000
vn 0.000000 0.000000 -1.000000
vn 0.000000 0.000000 -1.000000
vn 0.000000 0.000000 -1.000000
vn 0.000000 0.000000 -1.000000
vn 0.000000 0.000000 -1.000000
vn 0.000000 0.000000 -1.000000
vn 0.000000 0.000000 -1.000000
vn 0.000000 0.000000 -1.000000
vn 0.000000 0.000000 -1.000000
vn 0.000000 0.000000 -1.000000
vn 0.000000 0.000000 -1.000000
vn 0.000000 0.000000 -1.000000
vn 0.000000 0.000000 -1.000000
vn 0.000000 0.000000 -1.000000
vn 0.000000 0.000000 -1.000000
vn 0.000000 0.000000 -1.000000
vn 0.000000 0.000000 -1.000000
vn 0.000000 0.000000 -1.000000
vn 0.000000 0.000000 -1.000000
s 1
g BarreraC3
usemtl initialShadingGroup
f 5/5/1 6/6/2 2/2/3 1/1/4 4/4/5 7/7/6 8/8/7 9/9/8
f 6/6/2 10/10/9 11/11/10 12/12/11 13/13/12 14/14/13 15/15/14 16/16/15 17/17/16 18/18/17 19/19/18 20/20/19 7/7/6 4/4/5 3/3/20 2/2/3
