# This file uses centimeters as units for non-parametric coordinates.

mtllib BarreraE2.mtl
g default
v 15.131192 6.271754 0.417917
v 16.377405 0.006608 0.417917
v 2.730386 6.386072 0.417917
v 2.758368 6.663671 0.417917
v 2.696858 6.940561 0.417917
v 2.551876 7.189637 0.417917
v 2.337616 7.386517 0.417917
v 2.079254 7.518147 0.417917
v 1.988886 7.946837 0.417917
v 1.842853 8.609962 0.417917
v 1.656721 9.031023 0.417917
v 1.693335 9.185926 0.417917
v 1.741680 9.505656 0.417917
v 1.770983 9.742426 0.417917
v 1.725687 9.976663 0.417917
v 1.610224 10.185438 0.417917
v 1.435898 10.348315 0.417917
v 1.219771 10.449351 0.417917
v 0.983001 10.478655 0.417917
v 0.748764 10.433358 0.417917
v 0.539989 10.317896 0.417917
v 0.261333 10.153837 0.417917
v 0.131248 10.062113 0.417917
v -0.328780 10.077800 0.417917
v -0.999691 9.966860 0.417917
v -1.432246 9.891621 0.417917
v -1.650708 10.082284 0.417917
v -1.913273 10.207697 0.417917
v -2.198443 10.249366 0.417917
v -2.478302 10.203214 0.417917
v -2.725457 10.073755 0.417917
v -2.915713 9.873666 0.417917
v -3.030447 9.622529 0.417917
v -3.080491 9.312289 0.417917
v -6.259382 15.132033 0.417917
v 0.005774 16.378245 0.417917
v 6.270929 15.132026 0.417917
v 11.582269 11.583098 0.417917
v 0.469741 5.826173 0.417917
v -0.204752 5.722856 0.417917
v -0.855008 5.803336 0.417917
v -1.448568 6.080815 0.417917
v -1.927332 6.528135 0.417917
v -2.244434 7.101507 0.417917
v -2.400027 7.765890 0.417917
v -2.425242 8.279704 0.417917
v -2.659740 8.589444 0.417917
v -2.874000 8.786324 0.417917
v -3.018981 9.035400 0.417917
v 2.615651 6.134936 0.417917
v 2.425395 5.934846 0.417917
v 2.156179 5.772748 0.417917
v 1.876320 5.726595 0.417917
v 1.591150 5.768265 0.417917
v 1.328584 5.893678 0.417917
v 1.043680 5.992051 0.417917
v 15.131188 -6.258547 0.417917
v 11.582262 -11.569890 0.417917
v 6.270919 -15.118815 0.417917
v 0.005764 -16.365031 0.417917
v -6.259392 -15.118813 0.417917
v -11.570734 -11.569886 0.417917
v -15.119657 -6.258542 0.417917
v -16.365873 0.006614 0.417917
v -15.119653 6.271769 0.417917
v -11.570726 11.583110 0.417917
vt 0.644356 0.096456
vt 0.656250 0.156250
vt 0.526004 0.095365
vt 0.526271 0.092715
vt 0.525684 0.090073
vt 0.524300 0.087696
vt 0.522255 0.085817
vt 0.519789 0.084560
vt 0.518927 0.080469
vt 0.517533 0.074140
vt 0.515757 0.070121
vt 0.516106 0.068643
vt 0.516567 0.065592
vt 0.516847 0.063332
vt 0.516415 0.061096
vt 0.515313 0.059104
vt 0.513649 0.057549
vt 0.511586 0.056585
vt 0.509327 0.056305
vt 0.507091 0.056738
vt 0.505099 0.057840
vt 0.502439 0.059405
vt 0.501198 0.060281
vt 0.496807 0.060131
vt 0.490404 0.061190
vt 0.486276 0.061908
vt 0.484191 0.060088
vt 0.481685 0.058891
vt 0.478963 0.058494
vt 0.476292 0.058934
vt 0.473933 0.060170
vt 0.472118 0.062079
vt 0.471023 0.064476
vt 0.470545 0.067437
vt 0.440206 0.011894
vt 0.500000 0.000000
vt 0.559794 0.011894
vt 0.610485 0.045765
vt 0.504428 0.100708
vt 0.497991 0.101694
vt 0.491785 0.100926
vt 0.486120 0.098278
vt 0.481551 0.094009
vt 0.478524 0.088537
vt 0.477039 0.082196
vt 0.476799 0.077292
vt 0.474561 0.074336
vt 0.472516 0.072457
vt 0.471132 0.070080
vt 0.524909 0.097762
vt 0.523093 0.099671
vt 0.520523 0.101218
vt 0.517852 0.101659
vt 0.515131 0.101261
vt 0.512625 0.100064
vt 0.509906 0.099125
vt 0.644356 0.216044
vt 0.610485 0.266735
vt 0.559794 0.300606
vt 0.500000 0.312500
vt 0.440206 0.300606
vt 0.389515 0.266735
vt 0.355644 0.216044
vt 0.343750 0.156250
vt 0.355644 0.096456
vt 0.389515 0.045765
vn -0.000000 0.000000 -1.000000
vn -0.000000 0.000000 -1.000000
vn -0.000000 0.000000 -1.000000
vn -0.000000 0.000000 -1.000000
vn -0.000000 0.000000 -1.000000
vn -0.000000 0.000000 -1.000000
vn -0.000000 0.000000 -1.000000
vn -0.000000 0.000000 -1.000000
vn -0.000000 0.000000 -1.000000
vn -0.000000 0.000000 -1.000000
vn -0.000000 0.000000 -1.000000
vn -0.000000 0.000000 -1.000000
vn -0.000000 0.000000 -1.000000
vn -0.000000 0.000000 -1.000000
vn -0.000000 0.000000 -1.000000
vn -0.000000 0.000000 -1.000000
vn -0.000000 0.000000 -1.000000
vn -0.000000 0.000000 -1.000000
vn -0.000000 0.000000 -1.000000
vn -0.000000 0.000000 -1.000000
vn -0.000000 0.000000 -1.000000
vn -0.000000 0.000000 -1.000000
vn -0.000000 0.000000 -1.000000
vn -0.000000 0.000000 -1.000000
vn -0.000000 0.000000 -1.000000
vn -0.000000 0.000000 -1.000000
vn -0.000000 0.000000 -1.000000
vn -0.000000 0.000000 -1.000000
vn -0.000000 0.000000 -1.000000
vn -0.000000 0.000000 -1.000000
vn -0.000000 0.000000 -1.000000
vn -0.000000 0.000000 -1.000000
vn -0.000000 0.000000 -1.000000
vn -0.000000 0.000000 -1.000000
vn -0.000000 0.000000 -1.000000
vn -0.000000 0.000000 -1.000000
vn -0.000000 0.000000 -1.000000
vn -0.000000 0.000000 -1.000000
vn -0.000000 0.000000 -1.000000
vn -0.000000 0.000000 -1.000000
vn -0.000000 0.000000 -1.000000
vn -0.000000 0.000000 -1.000000
vn -0.000000 0.000000 -1.000000
vn -0.000000 0.000000 -1.000000
vn -0.000000 0.000000 -1.000000
vn -0.000000 0.000000 -1.000000
vn -0.000000 0.000000 -1.000000
vn -0.000000 0.000000 -1.000000
vn -0.000000 0.000000 -1.000000
vn -0.000000 0.000000 -1.000000
vn -0.000000 0.000000 -1.000000
vn -0.000000 0.000000 -1.000000
vn -0.000000 0.000000 -1.000000
vn -0.000000 0.000000 -1.000000
vn -0.000000 0.000000 -1.000000
vn -0.000000 0.000000 -1.000000
vn -0.000000 0.000000 -1.000000
vn -0.000000 0.000000 -1.000000
vn -0.000000 0.000000 -1.000000
vn -0.000000 0.000000 -1.000000
vn -0.000000 0.000000 -1.000000
vn -0.000000 0.000000 -1.000000
vn -0.000000 0.000000 -1.000000
vn -0.000000 0.000000 -1.000000
vn -0.000000 0.000000 -1.000000
vn -0.000000 0.000000 -1.000000
s 1
g BarreraE2
usemtl initialShadingGroup
f 1/1/1 2/2/2 3/3/3 4/4/4 5/5/5 6/6/6 7/7/7 8/8/8 9/9/9 10/10/10 11/11/11 12/12/12 13/13/13 14/14/14 15/15/15 16/16/16 17/17/17 18/18/18 19/19/19 20/20/20 21/21/21 22/22/22 23/23/23 24/24/24 25/25/25 26/26/26 27/27/27 28/28/28 29/29/29 30/30/30 31/31/31 32/32/32 33/33/33 34/34/34 35/35/35 36/36/36 37/37/37 38/38/38
f 2/2/2 57/57/39 58/58/40 59/59/41 60/60/42 61/61/43 62/62/44 63/63/45 64/64/46 65/65/47 66/66/48 35/35/35 34/34/34 49/49/49 48/48/50 47/47/51 46/46/52 45/45/53 44/44/54 43/43/55 42/42/56 41/41/57 40/40/58 39/39/59 56/56/60 55/55/61 54/54/62 53/53/63 52/52/64 51/51/65 50/50/66 3/3/3
