# This file uses centimeters as units for non-parametric coordinates.

mtllib TcolliderDER.mtl
g default
v -0.333436 -0.905274 -0.482883
v -2.697313 -2.095026 -0.652517
v -0.243566 -0.584221 -0.482883
v -2.865736 -1.830506 -0.652517
v -0.243566 -0.584221 -1.482883
v -2.865736 -1.830506 -1.481066
v -0.333436 -0.905274 -1.482883
v -2.697313 -2.095026 -1.481066
vt 0.375000 0.000000
vt 0.375000 0.250000
vt 0.625000 0.250000
vt 0.625000 0.000000
vt 0.375000 0.500000
vt 0.625000 0.500000
vt 0.375000 0.750000
vt 0.625000 0.750000
vt 0.375000 1.000000
vt 0.625000 1.000000
vt 0.875000 0.250000
vt 0.875000 0.000000
vt 0.125000 0.000000
vt 0.125000 0.250000
vn -0.063726 -0.008549 0.997931
vn -0.063726 -0.008549 0.997931
vn -0.063726 -0.008549 0.997931
vn -0.063726 -0.008549 0.997931
vn -0.429269 0.903177 0.000000
vn -0.429269 0.903177 0.000000
vn -0.429269 0.903177 0.000000
vn -0.429269 0.903177 0.000000
vn -0.000684 -0.000092 -1.000000
vn -0.000684 -0.000092 -1.000000
vn -0.000684 -0.000092 -1.000000
vn -0.000684 -0.000092 -1.000000
vn 0.449574 -0.893243 0.000000
vn 0.449574 -0.893243 0.000000
vn 0.449574 -0.893243 0.000000
vn 0.449574 -0.893243 0.000000
vn -0.843528 -0.537085 0.000000
vn -0.843528 -0.537085 0.000000
vn -0.843528 -0.537085 0.000000
vn -0.843528 -0.537085 0.000000
vn 0.962984 -0.269560 0.000000
vn 0.962984 -0.269560 0.000000
vn 0.962984 -0.269560 0.000000
vn 0.962984 -0.269560 0.000000
s off
g TcolliderIDER
usemtl initialShadingGroup
f 1/1/1 3/2/2 4/3/3 2/4/4
f 3/2/5 5/5/6 6/6/7 4/3/8
f 5/5/9 7/7/10 8/8/11 6/6/12
f 7/7/13 1/9/14 2/10/15 8/8/16
f 2/4/17 4/3/18 6/11/19 8/12/20
f 7/13/21 5/14/22 3/2/23 1/1/24
