# This file uses centimeters as units for non-parametric coordinates.

mtllib diamante.mtl
g default
v 0.000000 -3.784592 -0.000000
v -1.660539 0.310649 1.641508
v 1.660539 0.310649 1.641508
v 0.000000 3.784592 0.000000
v -1.660539 0.310649 -1.641508
v 1.660539 0.310649 -1.641508
vt 0.500000 0.000000
vt 0.375000 0.250000
vt 0.625000 0.250000
vt 0.500000 0.500000
vt 0.375000 0.750000
vt 0.625000 0.750000
vt 0.500000 1.000000
vt 0.875000 0.000000
vt 0.875000 0.250000
vt 0.125000 0.000000
vt 0.125000 0.250000
vn 0.000000 -0.372057 0.928210
vn 0.000000 -0.372057 0.928210
vn 0.000000 -0.372057 0.928210
vn 0.000000 0.427227 0.904145
vn 0.000000 0.427227 0.904145
vn 0.000000 0.427227 0.904145
vn 0.000000 0.427227 -0.904145
vn 0.000000 0.427227 -0.904145
vn 0.000000 0.427227 -0.904145
vn 0.000000 -0.372057 -0.928210
vn 0.000000 -0.372057 -0.928210
vn 0.000000 -0.372057 -0.928210
vn 0.999962 -0.008699 0.000000
vn 0.999962 -0.008699 0.000000
vn 0.902226 0.431263 0.000000
vn -0.999962 -0.008700 0.000000
vn -0.926715 -0.375765 0.000000
vn -0.999962 -0.008700 0.000000
vn -0.902226 0.431263 0.000000
vn 0.926715 -0.375765 0.000000
s off
g pCube1
usemtl initialShadingGroup
f 1/1/1 3/3/2 2/2/3
f 2/2/4 3/3/5 4/4/6
f 4/4/7 6/6/8 5/5/9
f 5/5/10 6/6/11 1/7/12
s 1
f 3/3/13 6/8/14 4/9/15
s 2
f 5/10/16 1/1/17 2/2/18
f 5/10/16 2/2/18 4/11/19
s 1
f 1/1/20 6/8/14 3/3/13
