# This file uses centimeters as units for non-parametric coordinates.

mtllib star.mtl
g default
v 0.000000 1.781245 -0.000000
v 0.744211 0.318637 0.735684
v -0.744211 0.318637 0.735684
v -0.000000 -2.147227 0.000000
v 0.744211 0.318637 -0.735684
v -0.717534 0.318637 -0.709312
v 0.045030 -1.264018 0.044514
v -0.045030 -1.264018 0.044514
v -0.045030 -1.264018 -0.044514
v 0.045030 -1.264018 -0.044514
v 0.071236 -0.489958 0.070421
v -0.071236 -0.489958 0.070421
v -0.071236 -0.489958 -0.070421
v 0.071236 -0.489958 -0.070421
v 0.126584 0.027761 0.125134
v -0.126584 0.027761 0.125134
v -0.126584 0.027761 -0.125134
v 0.126584 0.027761 -0.125134
v 0.040139 0.906426 0.039679
v -0.040139 0.906426 0.039679
v -0.040139 0.906426 -0.039679
v 0.040139 0.906426 -0.039679
v 0.080338 0.555174 -0.107135
v -0.108377 0.555174 -0.107135
v -0.108377 0.555174 0.079419
v 0.080338 0.555174 0.079419
v 0.264322 0.184349 0.261294
v -0.264322 0.184349 0.261294
v -0.264322 0.184349 -0.261294
v 0.264322 0.184349 -0.261294
v 0.253128 0.419834 -0.250228
v -0.252666 0.419833 -0.249771
v -0.253128 0.419834 0.250228
v 0.253128 0.419834 0.250228
v -0.264322 0.199579 0.000000
v -0.253128 0.371554 -0.000000
v -0.000000 0.199579 0.261294
v 0.000000 0.371554 0.250228
v 0.264322 0.199579 0.000000
v 0.253128 0.371554 -0.000000
v -0.000000 0.199579 -0.261294
v 0.000000 0.371554 -0.250228
v 0.382222 0.261174 0.377843
v 0.281095 0.266881 0.377843
v 0.281095 0.341462 0.373559
v 0.377889 0.359554 0.373559
v 0.377889 0.341462 0.277874
v 0.382222 0.266881 0.277874
v -0.382222 0.261174 0.377843
v -0.382222 0.266881 0.277874
v -0.377889 0.341462 0.277874
v -0.377889 0.359554 0.373559
v -0.281095 0.341462 0.373559
v -0.281095 0.266881 0.377843
v 0.377889 0.359554 -0.373559
v 0.281095 0.341462 -0.373559
v 0.281095 0.266881 -0.377843
v 0.382222 0.261174 -0.377843
v 0.382222 0.266881 -0.277874
v 0.377889 0.341462 -0.277874
v -0.367719 0.359555 -0.363506
v -0.367892 0.341463 -0.267991
v -0.372225 0.266881 -0.267991
v -0.372225 0.261174 -0.367961
v -0.271098 0.266881 -0.367961
v -0.271098 0.341463 -0.363677
vt 0.500000 0.000000
vt 0.375000 0.250000
vt 0.625000 0.250000
vt 0.500000 0.500000
vt 0.375000 0.750000
vt 0.625000 0.750000
vt 0.500000 1.000000
vt 0.875000 0.000000
vt 0.875000 0.250000
vt 0.125000 0.000000
vt 0.125000 0.250000
vt 0.250000 0.250000
vt 0.437500 0.375000
vt 0.562500 0.375000
vt 0.750000 0.250000
vt 0.562500 0.625000
vt 0.875000 0.125000
vt 0.125000 0.125000
vt 0.437500 0.625000
vt 0.312500 0.250000
vt 0.406250 0.312500
vt 0.593750 0.312500
vt 0.687500 0.250000
vt 0.593750 0.687500
vt 0.875000 0.062500
vt 0.125000 0.062500
vt 0.406250 0.687500
vt 0.343750 0.250000
vt 0.390625 0.281250
vt 0.609375 0.281250
vt 0.656250 0.250000
vt 0.609375 0.718750
vt 0.875000 0.031250
vt 0.125000 0.031250
vt 0.390625 0.718750
vt 0.437500 0.125000
vt 0.562500 0.125000
vt 0.562500 0.875000
vt 0.687500 0.000000
vt 0.312500 0.000000
vt 0.437500 0.875000
vt 0.218750 0.000000
vt 0.406250 0.812500
vt 0.593750 0.812500
vt 0.781250 0.000000
vt 0.593750 0.187500
vt 0.406250 0.187500
vt 0.359375 0.250000
vt 0.382813 0.265625
vt 0.617188 0.265625
vt 0.640625 0.250000
vt 0.617188 0.734375
vt 0.875000 0.015625
vt 0.125000 0.015625
vt 0.382813 0.734375
vt 0.171875 0.000000
vt 0.390625 0.781250
vt 0.609375 0.781250
vt 0.828125 0.000000
vt 0.609375 0.218750
vt 0.390625 0.218750
vt 0.757813 0.132813
vt 0.718750 0.109375
vt 0.500000 0.265625
vt 0.500000 0.218750
vt 0.242188 0.132813
vt 0.281250 0.109375
vt 0.500000 0.734375
vt 0.500000 0.781250
vt 0.367188 0.250000
vt 0.378906 0.257813
vt 0.437500 0.257813
vt 0.437500 0.234375
vt 0.382813 0.234375
vt 0.328125 0.179688
vt 0.308594 0.191406
vt 0.621094 0.257813
vt 0.632813 0.250000
vt 0.691406 0.191406
vt 0.671875 0.179688
vt 0.617188 0.234375
vt 0.562500 0.234375
vt 0.562500 0.257813
vt 0.148438 0.000000
vt 0.382813 0.765625
vt 0.437500 0.765625
vt 0.437500 0.742188
vt 0.125000 0.007813
vt 0.378906 0.742188
vt 0.183594 0.066406
vt 0.203125 0.054688
vt 0.617188 0.765625
vt 0.851563 0.000000
vt 0.796875 0.054688
vt 0.816406 0.066406
vt 0.621094 0.742188
vt 0.875000 0.007813
vt 0.562500 0.742188
vt 0.562500 0.765625
vn 0.000000 0.085554 0.996334
vn 0.000000 0.086276 0.996271
vn 0.000000 0.574328 0.818625
vn 0.000000 0.572534 0.819881
vn -0.000000 -0.038436 0.999261
vn -0.000000 -0.038436 0.999261
vn -0.000000 -0.050336 0.998732
vn -0.000000 -0.050336 -0.998732
vn -0.000000 -0.038436 -0.999261
vn -0.000000 -0.038436 -0.999261
vn -0.000399 0.527501 -0.849554
vn -0.000401 0.528841 -0.848721
vn 0.000000 0.133366 -0.991067
vn 0.000000 0.131844 -0.991270
vn -0.999244 -0.038883 0.000000
vn -0.999244 -0.038883 0.000000
vn -0.998703 -0.050918 0.000000
vn 0.817151 0.576424 0.000000
vn 0.815925 0.578158 0.000000
vn 0.996187 0.087242 -0.000000
vn 0.996250 0.086519 -0.000000
vn 0.999244 -0.038883 0.000000
vn 0.999244 -0.038883 0.000000
vn 0.998703 -0.050918 0.000000
vn -0.991075 0.133305 0.000000
vn -0.990869 0.134829 0.000000
vn -0.846266 0.532760 -0.000408
vn -0.847075 0.531473 -0.000407
vn -0.000000 -0.073268 0.997312
vn -0.000000 -0.073268 0.997312
vn -0.997251 -0.074095 0.000000
vn -0.997251 -0.074095 0.000000
vn -0.000000 -0.073268 -0.997312
vn -0.000000 -0.073268 -0.997312
vn 0.997251 -0.074095 0.000000
vn 0.997251 -0.074095 0.000000
vn -0.000000 -0.409905 0.912128
vn -0.000000 -0.409905 0.912128
vn -0.910615 -0.413256 0.000000
vn -0.910615 -0.413256 0.000000
vn -0.000000 -0.409906 -0.912128
vn -0.000000 -0.409906 -0.912128
vn 0.910615 -0.413256 0.000000
vn 0.910615 -0.413256 0.000000
vn -0.018965 -0.711033 0.702903
vn -0.000000 -0.650187 0.759774
vn 0.018965 -0.711033 0.702903
vn -0.699341 -0.714531 -0.019156
vn -0.757416 -0.652933 -0.000222
vn -0.712972 -0.700966 0.017830
vn 0.017651 -0.697308 -0.716555
vn -0.000215 -0.648359 -0.761335
vn -0.018965 -0.711033 -0.702903
vn 0.699341 -0.714531 0.019156
vn 0.755816 -0.654784 0.000000
vn 0.699341 -0.714531 -0.019156
vn 0.000000 0.045310 0.998973
vn -0.998949 0.045834 -0.000000
vn 0.000000 0.045310 -0.998973
vn 0.998949 0.045834 -0.000000
vn -0.068404 0.727418 -0.682777
vn -0.001352 0.663505 -0.748171
vn 0.060317 0.713341 -0.698217
vn -0.694643 0.716776 0.060858
vn -0.744051 0.668121 -0.001391
vn -0.679272 0.730635 -0.069001
vn 0.060296 0.755429 0.652450
vn -0.000000 0.721029 0.692905
vn -0.063206 0.757573 0.649683
vn 0.645829 0.760820 -0.063703
vn 0.688511 0.725226 0.000000
vn 0.648554 0.758736 0.060801
vn 0.048327 -0.845760 0.531371
vn 0.053052 -0.935622 0.348994
vn -0.554807 -0.830593 0.048006
vn -0.364298 -0.929754 0.053329
vn -0.048327 -0.845760 -0.531371
vn -0.053051 -0.935622 -0.348995
vn 0.526107 -0.849002 -0.049073
vn 0.346829 -0.936389 -0.053713
vn -0.170273 0.906569 -0.386187
vn -0.159303 0.842038 -0.515359
vn -0.394826 0.902684 0.171094
vn -0.529693 0.833199 0.158757
vn 0.170273 0.906568 0.386188
vn 0.159303 0.842038 0.515359
vn 0.383324 0.907380 -0.172409
vn 0.510197 0.844728 -0.161658
vn -0.346829 -0.936389 -0.053713
vn -0.526107 -0.849002 -0.049073
vn -0.510197 0.844728 -0.161658
vn -0.383324 0.907380 -0.172409
vn -0.053052 -0.935622 0.348994
vn -0.048327 -0.845760 0.531371
vn -0.159303 0.842038 0.515359
vn -0.170273 0.906568 0.386188
vn 0.346829 -0.936389 0.053714
vn 0.526107 -0.849002 0.049073
vn 0.510197 0.844728 0.161658
vn 0.383324 0.907380 0.172409
vn 0.052667 -0.928914 -0.366530
vn 0.047254 -0.827039 -0.560155
vn 0.156395 0.830290 -0.534938
vn 0.168965 0.901820 -0.397707
vn -0.471222 0.053538 0.880388
vn -0.472696 0.053464 0.879602
vn -0.395009 0.057083 0.916902
vn -0.395009 0.057083 0.916902
vn -0.395009 0.057083 0.916902
vn 0.472696 0.053464 0.879602
vn 0.471222 0.053538 0.880388
vn 0.395009 0.057083 0.916902
vn 0.395009 0.057083 0.916902
vn 0.395009 0.057083 0.916902
vn -0.875787 0.053874 -0.479682
vn -0.875016 0.053801 -0.481095
vn -0.913511 0.057530 -0.402726
vn -0.913511 0.057530 -0.402726
vn -0.913511 0.057530 -0.402726
vn -0.881367 0.054195 0.469313
vn -0.882312 0.054283 0.467525
vn -0.920494 0.057969 0.386432
vn -0.920494 0.057969 0.386432
vn -0.920494 0.057969 0.386432
vn -0.472696 0.053464 -0.879602
vn -0.471223 0.053538 -0.880388
vn -0.395009 0.057083 -0.916902
vn -0.395009 0.057083 -0.916902
vn -0.395009 0.057083 -0.916902
vn 0.459165 0.053930 -0.886712
vn 0.461011 0.053841 -0.885759
vn 0.378917 0.057502 -0.923642
vn 0.378917 0.057502 -0.923642
vn 0.378917 0.057502 -0.923642
vn 0.875787 0.053874 0.479682
vn 0.875016 0.053802 0.481095
vn 0.913511 0.057530 0.402726
vn 0.913511 0.057530 0.402726
vn 0.913511 0.057530 0.402726
vn 0.875016 0.053801 -0.481095
vn 0.875787 0.053874 -0.479682
vn 0.913511 0.057530 -0.402726
vn 0.913511 0.057530 -0.402726
vn 0.913511 0.057530 -0.402726
vn -0.055060 -0.975638 0.212367
vn -0.613959 0.045264 0.788039
vn -0.176129 0.942314 0.284646
vn 0.281541 0.942844 -0.178270
vn 0.781105 0.045383 -0.622748
vn 0.210035 -0.976105 -0.055725
vn -0.210035 -0.976105 -0.055725
vn -0.781105 0.045383 -0.622748
vn -0.281541 0.942844 -0.178270
vn 0.176129 0.942314 0.284646
vn 0.613959 0.045264 0.788039
vn 0.055060 -0.975638 0.212367
vn -0.176128 0.942314 -0.284645
vn -0.613959 0.045263 -0.788039
vn -0.055060 -0.975637 -0.212369
vn 0.210034 -0.976105 0.055725
vn 0.781105 0.045383 0.622748
vn 0.281541 0.942844 0.178269
vn -0.285936 0.941602 0.177836
vn -0.784150 0.045560 0.618896
vn -0.217175 -0.974546 0.055636
vn 0.054970 -0.974045 -0.219580
vn 0.610096 0.045434 -0.791024
vn 0.175694 0.941045 -0.289078
s 1
g pCube2
usemtl initialShadingGroup
f 19/36/1 20/37/2 25/46/3 26/47/4
s 2
f 7/13/5 8/14/6 4/4/7
s 3
f 4/4/8 9/16/9 10/19/10
s 4
f 23/43/11 24/44/12 21/38/13 22/41/14
s 5
f 8/15/15 9/17/16 4/9/17
s 6
f 26/47/18 23/42/19 22/40/20 19/36/21
s 7
f 10/18/22 7/12/23 4/11/24
s 8
f 20/37/25 21/39/26 24/45/27 25/46/28
s 2
f 11/21/29 12/22/30 8/14/6 7/13/5
s 5
f 12/23/31 13/25/32 9/17/16 8/15/15
s 3
f 10/19/10 9/16/9 13/24/33 14/27/34
s 7
f 14/26/35 11/20/36 7/12/23 10/18/22
s 2
f 15/29/37 16/30/38 12/22/30 11/21/29
s 5
f 16/31/39 17/33/40 13/25/32 12/23/31
s 3
f 14/27/34 13/24/33 17/32/41 18/35/42
s 7
f 18/34/43 15/28/44 11/20/36 14/26/35
s 2
f 27/49/45 37/64/46 28/50/47 16/30/38 15/29/37
s 5
f 28/51/48 35/62/49 29/53/50 17/33/40 16/31/39
s 3
f 18/35/42 17/32/41 29/52/51 41/68/52 30/55/53
s 7
f 30/54/54 39/66/55 27/48/56 15/28/44 18/34/43
s 1
f 1/1/57 20/37/2 19/36/1
s 8
f 1/1/58 21/39/26 20/37/25
s 4
f 22/41/14 21/38/13 1/7/59
s 6
f 19/36/21 22/40/20 1/1/60
s 4
f 31/57/61 42/69/62 32/58/63 24/44/12 23/43/11
s 8
f 25/46/28 24/45/27 32/59/64 36/63/65 33/60/66
s 1
f 26/47/4 25/46/3 33/60/67 38/65/68 34/61/69
s 6
f 34/61/70 40/67/71 31/56/72 23/42/19 26/47/18
s 2
f 37/64/46 54/83/73 49/77/74 28/50/47
s 5
f 35/62/49 63/95/75 64/97/76 29/53/50
s 3
f 30/55/53 41/68/52 57/87/77 58/89/78
s 7
f 39/66/55 48/76/79 43/70/80 27/48/56
s 4
f 55/85/81 56/86/82 42/69/62 31/57/61
s 8
f 61/93/83 62/94/84 36/63/65 32/59/64
s 1
f 52/81/85 53/82/86 38/65/68 33/60/67
s 6
f 46/74/87 47/75/88 40/67/71 34/61/70
s 5
f 49/78/89 50/79/90 35/62/49 28/51/48
s 8
f 33/60/66 36/63/65 51/80/91 52/81/92
s 2
f 43/71/93 44/72/94 37/64/46 27/49/45
s 1
f 34/61/69 38/65/68 45/73/95 46/74/96
s 7
f 58/88/97 59/90/98 39/66/55 30/54/54
s 6
f 60/91/99 55/84/100 31/56/72 40/67/71
s 3
f 64/96/101 65/98/102 41/68/52 29/52/51
s 4
f 42/69/62 66/99/103 61/92/104 32/58/63
s 9
f 44/72/105 45/73/106 45/73/107 38/65/108 37/64/109
s 10
f 53/82/110 54/83/111 54/83/112 37/64/113 38/65/114
s 11
f 50/79/115 51/80/116 51/80/117 36/63/118 35/62/119
s 12
f 62/94/120 63/95/121 63/95/122 35/62/123 36/63/124
s 13
f 56/86/125 57/87/126 57/87/127 41/68/128 42/69/129
s 14
f 65/98/130 66/99/131 66/99/132 42/69/133 41/68/134
s 15
f 59/90/135 60/91/136 60/91/137 40/67/138 39/66/139
s 16
f 47/75/140 48/76/141 48/76/142 39/66/143 40/67/144
s 2
f 2/2/145 44/72/94 43/71/93
s 9
f 2/2/146 45/73/106 44/72/105
s 1
f 46/74/96 45/73/95 2/2/147
s 6
f 2/2/148 47/75/88 46/74/87
s 16
f 2/2/149 48/76/141 47/75/140
s 7
f 43/70/80 48/76/79 2/2/150
s 5
f 3/3/151 50/79/90 49/78/89
s 11
f 3/3/152 51/80/116 50/79/115
s 8
f 52/81/92 51/80/91 3/3/153
s 1
f 3/3/154 53/82/86 52/81/85
s 10
f 3/3/155 54/83/111 53/82/110
s 2
f 49/77/74 54/83/73 3/3/156
s 4
f 5/5/157 56/86/82 55/85/81
s 13
f 5/5/158 57/87/126 56/86/125
s 3
f 58/89/78 57/87/77 5/5/159
s 7
f 5/10/160 59/90/98 58/88/97
s 15
f 5/10/161 60/91/136 59/90/135
s 6
f 5/10/162 55/84/100 60/91/99
s 8
f 6/8/163 62/94/84 61/93/83
s 12
f 6/8/164 63/95/121 62/94/120
s 5
f 64/97/76 63/95/75 6/8/165
s 3
f 6/6/166 65/98/102 64/96/101
s 14
f 6/6/167 66/99/131 65/98/130
s 4
f 61/92/104 66/99/103 6/6/168
