# This file uses centimeters as units for non-parametric coordinates.

mtllib Centro.mtl
g default
v 1.160510 0.377073 -0.554243
v 0.987189 0.717235 -0.554243
v 0.717235 0.987189 -0.554243
v 0.377073 1.160510 -0.554243
v 0.000000 1.220232 -0.554243
v -0.377073 1.160510 -0.554243
v -0.717235 0.987189 -0.554243
v -0.987189 0.717235 -0.554243
v -1.160510 0.377072 -0.554243
v -1.220232 0.000000 -0.554243
v -1.160510 -0.377072 -0.554243
v -0.987189 -0.717234 -0.554243
v -0.717234 -0.987188 -0.554243
v -0.377072 -1.160510 -0.554243
v -0.000000 -1.220232 -0.554243
v 0.377072 -1.160510 -0.554243
v 0.717234 -0.987188 -0.554243
v 0.987188 -0.717234 -0.554243
v 1.160509 -0.377072 -0.554243
v 1.220232 0.000000 -0.554243
v 1.287978 0.418489 -0.094500
v 1.095620 0.796014 -0.094500
v 0.796014 1.095620 -0.094500
v 0.418489 1.287978 -0.094500
v 0.000000 1.354260 -0.094500
v -0.418489 1.287978 -0.094500
v -0.796014 1.095619 -0.094500
v -1.095619 0.796014 -0.094500
v -1.287978 0.418489 -0.094500
v -1.354260 0.000000 -0.094500
v -1.287978 -0.418489 -0.094500
v -1.095619 -0.796014 -0.094500
v -0.796014 -1.095619 -0.094500
v -0.418489 -1.287977 -0.094500
v -0.000000 -1.354260 -0.094500
v 0.418489 -1.287977 -0.094500
v 0.796014 -1.095619 -0.094500
v 1.095619 -0.796014 -0.094500
v 1.287977 -0.418489 -0.094500
v 1.354259 0.000000 -0.094500
v 0.000000 -0.000000 -0.554243
v 0.000000 0.000000 -0.094500
v 0.907188 0.294763 -0.464195
v 0.771700 0.560673 -0.464195
v 0.560673 0.771700 -0.464195
v 0.294763 0.907188 -0.464195
v 0.000000 0.953873 -0.464195
v -0.294763 0.907188 -0.464195
v -0.560673 0.771700 -0.464195
v -0.771700 0.560673 -0.464195
v -0.907188 0.294763 -0.464195
v -0.953873 -0.000000 -0.464195
v -0.907188 -0.294763 -0.464195
v -0.771700 -0.560673 -0.464195
v -0.560673 -0.771700 -0.464195
v -0.294763 -0.907188 -0.464195
v -0.000000 -0.953873 -0.464195
v 0.294763 -0.907188 -0.464195
v 0.560673 -0.771700 -0.464195
v 0.771700 -0.560673 -0.464195
v 0.907188 -0.294763 -0.464195
v 0.953873 -0.000000 -0.464195
vt 0.648603 0.107966
vt 0.626409 0.064408
vt 0.591842 0.029841
vt 0.548284 0.007647
vt 0.500000 -0.000000
vt 0.451716 0.007647
vt 0.408159 0.029841
vt 0.373591 0.064409
vt 0.351397 0.107966
vt 0.343750 0.156250
vt 0.351397 0.204534
vt 0.373591 0.248091
vt 0.408159 0.282659
vt 0.451716 0.304853
vt 0.500000 0.312500
vt 0.548284 0.304853
vt 0.591841 0.282659
vt 0.626409 0.248091
vt 0.648603 0.204534
vt 0.656250 0.156250
vt 0.375000 0.312500
vt 0.387500 0.312500
vt 0.400000 0.312500
vt 0.412500 0.312500
vt 0.425000 0.312500
vt 0.437500 0.312500
vt 0.450000 0.312500
vt 0.462500 0.312500
vt 0.475000 0.312500
vt 0.487500 0.312500
vt 0.500000 0.312500
vt 0.512500 0.312500
vt 0.525000 0.312500
vt 0.537500 0.312500
vt 0.550000 0.312500
vt 0.562500 0.312500
vt 0.575000 0.312500
vt 0.587500 0.312500
vt 0.600000 0.312500
vt 0.612500 0.312500
vt 0.625000 0.312500
vt 0.375000 0.688440
vt 0.387500 0.688440
vt 0.400000 0.688440
vt 0.412500 0.688440
vt 0.425000 0.688440
vt 0.437500 0.688440
vt 0.450000 0.688440
vt 0.462500 0.688440
vt 0.475000 0.688440
vt 0.487500 0.688440
vt 0.500000 0.688440
vt 0.512500 0.688440
vt 0.525000 0.688440
vt 0.537500 0.688440
vt 0.550000 0.688440
vt 0.562500 0.688440
vt 0.575000 0.688440
vt 0.587500 0.688440
vt 0.600000 0.688440
vt 0.612500 0.688440
vt 0.625000 0.688440
vt 0.648603 0.795466
vt 0.626409 0.751908
vt 0.591842 0.717341
vt 0.548284 0.695147
vt 0.500000 0.687500
vt 0.451716 0.695147
vt 0.408159 0.717341
vt 0.373591 0.751909
vt 0.351397 0.795466
vt 0.343750 0.843750
vt 0.351397 0.892034
vt 0.373591 0.935591
vt 0.408159 0.970159
vt 0.451716 0.992353
vt 0.500000 1.000000
vt 0.548284 0.992353
vt 0.591841 0.970159
vt 0.626409 0.935591
vt 0.648603 0.892034
vt 0.656250 0.843750
vt 0.500000 0.150000
vt 0.500000 0.837500
vt 0.574301 0.128983
vt 0.563205 0.107204
vt 0.545921 0.089921
vt 0.524142 0.078824
vt 0.500000 0.075000
vt 0.475858 0.078824
vt 0.454079 0.089921
vt 0.436796 0.107204
vt 0.425699 0.128983
vt 0.421875 0.153125
vt 0.425699 0.177267
vt 0.436796 0.199046
vt 0.454079 0.216329
vt 0.475858 0.227426
vt 0.500000 0.231250
vt 0.524142 0.227426
vt 0.545921 0.216329
vt 0.563204 0.199046
vt 0.574301 0.177267
vt 0.578125 0.153125
vn 0.913301 0.295890 -0.279877
vn 0.777165 0.563634 -0.279877
vn 0.913257 0.296024 -0.279877
vn 0.777082 0.563748 -0.279877
vn 0.564955 0.776205 -0.279877
vn 0.564841 0.776288 -0.279877
vn 0.297444 0.912796 -0.279877
vn 0.297310 0.912840 -0.279877
vn 0.000817 0.960036 -0.279877
vn 0.000675 0.960036 -0.279877
vn -0.295891 0.913300 -0.279877
vn -0.296025 0.913257 -0.279877
vn -0.563634 0.777165 -0.279877
vn -0.563749 0.777082 -0.279877
vn -0.776205 0.564955 -0.279877
vn -0.776288 0.564841 -0.279876
vn -0.912796 0.297444 -0.279877
vn -0.912840 0.297310 -0.279876
vn -0.960036 0.000816 -0.279876
vn -0.960036 0.000676 -0.279876
vn -0.913301 -0.295891 -0.279876
vn -0.913257 -0.296025 -0.279876
vn -0.777165 -0.563634 -0.279877
vn -0.777082 -0.563748 -0.279876
vn -0.564955 -0.776205 -0.279877
vn -0.564841 -0.776288 -0.279877
vn -0.297444 -0.912796 -0.279877
vn -0.297310 -0.912839 -0.279877
vn -0.000816 -0.960036 -0.279877
vn -0.000675 -0.960036 -0.279877
vn 0.295891 -0.913300 -0.279877
vn 0.296025 -0.913257 -0.279877
vn 0.563634 -0.777165 -0.279877
vn 0.563748 -0.777082 -0.279877
vn 0.776205 -0.564955 -0.279877
vn 0.776288 -0.564841 -0.279877
vn 0.912796 -0.297444 -0.279876
vn 0.912839 -0.297310 -0.279877
vn 0.960036 -0.000817 -0.279877
vn 0.960036 -0.000676 -0.279877
vn -0.011943 -0.007880 -0.999898
vn -0.013794 -0.003804 -0.999898
vn -0.000000 0.000000 -1.000000
vn -0.008924 -0.011185 -0.999898
vn -0.005030 -0.013395 -0.999898
vn -0.000645 -0.014294 -0.999898
vn 0.003804 -0.013794 -0.999898
vn 0.007880 -0.011943 -0.999898
vn 0.011185 -0.008924 -0.999898
vn 0.013395 -0.005030 -0.999898
vn 0.014294 -0.000645 -0.999898
vn 0.013794 0.003804 -0.999898
vn 0.011943 0.007880 -0.999898
vn 0.008924 0.011185 -0.999898
vn 0.005030 0.013395 -0.999898
vn 0.000645 0.014294 -0.999898
vn -0.003804 0.013794 -0.999898
vn -0.007880 0.011943 -0.999898
vn -0.011185 0.008924 -0.999898
vn -0.013395 0.005030 -0.999898
vn -0.014294 0.000645 -0.999898
vn 0.000000 0.000000 1.000000
vn 0.000000 0.000000 1.000000
vn 0.000000 0.000000 1.000000
vn 0.000000 0.000000 1.000000
vn 0.000000 0.000000 1.000000
vn 0.000000 0.000000 1.000000
vn 0.000000 0.000000 1.000000
vn 0.000000 0.000000 1.000000
vn 0.000000 0.000000 1.000000
vn 0.000000 0.000000 1.000000
vn 0.000000 0.000000 1.000000
vn 0.000000 0.000000 1.000000
vn 0.000000 0.000000 1.000000
vn 0.000000 0.000000 1.000000
vn 0.000000 0.000000 1.000000
vn 0.000000 0.000000 1.000000
vn 0.000000 0.000000 1.000000
vn 0.000000 0.000000 1.000000
vn 0.000000 0.000000 1.000000
vn 0.000000 0.000000 1.000000
vn 0.000000 0.000000 1.000000
vn -0.320263 0.001721 -0.947327
vn -0.304056 0.100603 -0.947327
vn -0.258087 0.189638 -0.947327
vn -0.186853 0.260109 -0.947327
vn -0.097330 0.305120 -0.947327
vn 0.001721 0.320263 -0.947327
vn 0.100603 0.304056 -0.947327
vn 0.189638 0.258086 -0.947327
vn 0.260109 0.186853 -0.947327
vn 0.305119 0.097330 -0.947327
vn 0.320262 -0.001721 -0.947327
vn 0.304056 -0.100603 -0.947327
vn 0.258086 -0.189638 -0.947327
vn 0.186853 -0.260109 -0.947327
vn 0.097330 -0.305119 -0.947327
vn -0.001721 -0.320262 -0.947327
vn -0.100603 -0.304056 -0.947327
vn -0.189638 -0.258086 -0.947327
vn -0.260109 -0.186853 -0.947327
vn -0.305119 -0.097330 -0.947327
s 1
g Center
usemtl initialShadingGroup
f 1/21/1 2/22/2 21/42/3
f 21/42/3 2/22/2 22/43/4
f 2/22/2 3/23/5 22/43/4
f 22/43/4 3/23/5 23/44/6
f 3/23/5 4/24/7 23/44/6
f 23/44/6 4/24/7 24/45/8
f 4/24/7 5/25/9 24/45/8
f 24/45/8 5/25/9 25/46/10
f 5/25/9 6/26/11 25/46/10
f 25/46/10 6/26/11 26/47/12
f 6/26/11 7/27/13 26/47/12
f 26/47/12 7/27/13 27/48/14
f 7/27/13 8/28/15 27/48/14
f 27/48/14 8/28/15 28/49/16
f 8/28/15 9/29/17 28/49/16
f 28/49/16 9/29/17 29/50/18
f 9/29/17 10/30/19 29/50/18
f 29/50/18 10/30/19 30/51/20
f 10/30/19 11/31/21 30/51/20
f 30/51/20 11/31/21 31/52/22
f 11/31/21 12/32/23 31/52/22
f 31/52/22 12/32/23 32/53/24
f 12/32/23 13/33/25 32/53/24
f 32/53/24 13/33/25 33/54/26
f 13/33/25 14/34/27 33/54/26
f 33/54/26 14/34/27 34/55/28
f 14/34/27 15/35/29 34/55/28
f 34/55/28 15/35/29 35/56/30
f 15/35/29 16/36/31 35/56/30
f 35/56/30 16/36/31 36/57/32
f 16/36/31 17/37/33 36/57/32
f 36/57/32 17/37/33 37/58/34
f 17/37/33 18/38/35 37/58/34
f 37/58/34 18/38/35 38/59/36
f 18/38/35 19/39/37 38/59/36
f 38/59/36 19/39/37 39/60/38
f 19/39/37 20/40/39 39/60/38
f 39/60/38 20/40/39 40/61/40
f 20/40/39 1/41/1 40/61/40
f 40/61/40 1/41/1 21/62/3
s 2
f 44/86/41 43/85/42 41/83/43
f 45/87/44 44/86/41 41/83/43
f 46/88/45 45/87/44 41/83/43
f 47/89/46 46/88/45 41/83/43
f 48/90/47 47/89/46 41/83/43
f 49/91/48 48/90/47 41/83/43
f 50/92/49 49/91/48 41/83/43
f 51/93/50 50/92/49 41/83/43
f 52/94/51 51/93/50 41/83/43
f 53/95/52 52/94/51 41/83/43
f 54/96/53 53/95/52 41/83/43
f 55/97/54 54/96/53 41/83/43
f 56/98/55 55/97/54 41/83/43
f 57/99/56 56/98/55 41/83/43
f 58/100/57 57/99/56 41/83/43
f 59/101/58 58/100/57 41/83/43
f 60/102/59 59/101/58 41/83/43
f 61/103/60 60/102/59 41/83/43
f 62/104/61 61/103/60 41/83/43
f 43/85/42 62/104/61 41/83/43
s 3
f 21/81/62 22/80/63 42/84/64
f 22/80/63 23/79/65 42/84/64
f 23/79/65 24/78/66 42/84/64
f 24/78/66 25/77/67 42/84/64
f 25/77/67 26/76/68 42/84/64
f 26/76/68 27/75/69 42/84/64
f 27/75/69 28/74/70 42/84/64
f 28/74/70 29/73/71 42/84/64
f 29/73/71 30/72/72 42/84/64
f 30/72/72 31/71/73 42/84/64
f 31/71/73 32/70/74 42/84/64
f 32/70/74 33/69/75 42/84/64
f 33/69/75 34/68/76 42/84/64
f 34/68/76 35/67/77 42/84/64
f 35/67/77 36/66/78 42/84/64
f 36/66/78 37/65/79 42/84/64
f 37/65/79 38/64/80 42/84/64
f 38/64/80 39/63/81 42/84/64
f 39/63/81 40/82/82 42/84/64
f 40/82/82 21/81/62 42/84/64
s 2
f 20/20/83 19/19/84 62/104/61
f 62/104/61 19/19/84 61/103/60
f 19/19/84 18/18/85 61/103/60
f 61/103/60 18/18/85 60/102/59
f 18/18/85 17/17/86 60/102/59
f 60/102/59 17/17/86 59/101/58
f 17/17/86 16/16/87 59/101/58
f 59/101/58 16/16/87 58/100/57
f 16/16/87 15/15/88 58/100/57
f 58/100/57 15/15/88 57/99/56
f 15/15/88 14/14/89 57/99/56
f 57/99/56 14/14/89 56/98/55
f 14/14/89 13/13/90 56/98/55
f 56/98/55 13/13/90 55/97/54
f 13/13/90 12/12/91 55/97/54
f 55/97/54 12/12/91 54/96/53
f 12/12/91 11/11/92 54/96/53
f 54/96/53 11/11/92 53/95/52
f 11/11/92 10/10/93 53/95/52
f 53/95/52 10/10/93 52/94/51
f 10/10/93 9/9/94 52/94/51
f 52/94/51 9/9/94 51/93/50
f 9/9/94 8/8/95 51/93/50
f 51/93/50 8/8/95 50/92/49
f 8/8/95 7/7/96 50/92/49
f 50/92/49 7/7/96 49/91/48
f 7/7/96 6/6/97 49/91/48
f 49/91/48 6/6/97 48/90/47
f 6/6/97 5/5/98 48/90/47
f 48/90/47 5/5/98 47/89/46
f 5/5/98 4/4/99 47/89/46
f 47/89/46 4/4/99 46/88/45
f 4/4/99 3/3/100 46/88/45
f 46/88/45 3/3/100 45/87/44
f 3/3/100 2/2/101 45/87/44
f 45/87/44 2/2/101 44/86/41
f 2/2/101 1/1/102 44/86/41
f 44/86/41 1/1/102 43/85/42
f 1/1/102 20/20/83 43/85/42
f 43/85/42 20/20/83 62/104/61
