# This file uses centimeters as units for non-parametric coordinates.

mtllib Hojas.mtl
g default
v 0.826268 1.022431 -0.000000
v 0.699956 1.063472 -0.000000
v 3.343335 10.290691 0.000000
v 0.379103 1.167724 -0.000000
v 0.058250 1.271975 -0.000000
v -0.068062 1.313017 -0.000000
v 2.525641 9.295613 0.000000
v 3.419970 9.005028 0.000000
v 2.652694 9.256853 0.000000
v 3.244875 9.987664 0.000000
v 3.294400 9.048350 0.000000
v 2.290465 7.284907 0.000000
v 0.293885 1.195413 -0.000000
v 2.428368 7.240100 0.000000
v 0.464321 1.140035 -0.000000
v 2.669948 8.218220 0.000000
v 1.227504 -0.470177 -0.000000
v 1.227504 -0.337365 -0.000000
v 10.819960 -0.000000 0.000000
v 1.227504 -0.000000 -0.000000
v 1.227504 0.337365 -0.000000
v 1.227504 0.470177 -0.000000
v 9.620903 0.470177 0.000000
v 9.620903 -0.470177 0.000000
v 9.623302 0.337365 0.000000
v 10.501338 -0.000000 0.000000
v 9.623302 -0.337365 0.000000
v 7.635934 0.072500 -0.000000
v 1.227504 0.089604 -0.000000
v 7.635934 -0.072500 -0.000000
v 1.227504 -0.089604 -0.000000
v 8.640835 -0.000000 -0.000000
v -0.068062 -1.313017 -0.000000
v 0.058250 -1.271975 -0.000000
v 3.343335 -10.290691 0.000000
v 0.379103 -1.167724 -0.000000
v 0.699956 -1.063472 -0.000000
v 0.826268 -1.022431 -0.000000
v 3.419970 -9.005028 0.000000
v 2.525641 -9.295613 0.000000
v 3.294400 -9.048350 0.000000
v 3.244875 -9.987664 0.000000
v 2.652694 -9.256853 -0.000000
v 2.428368 -7.240100 -0.000000
v 0.464321 -1.140035 -0.000000
v 2.290465 -7.284907 -0.000000
v 0.293885 -1.195413 -0.000000
v 2.669948 -8.218220 -0.000000
v -1.270002 -0.341312 -0.000000
v -1.191937 -0.448759 -0.000000
v -8.754098 -6.359997 -0.000000
v -0.993639 -0.721693 -0.000000
v -0.795341 -0.994627 -0.000000
v -0.717276 -1.102074 -0.000000
v -7.507678 -6.035590 -0.000000
v -8.060403 -5.274828 -0.000000
v -7.587684 -5.929553 -0.000000
v -8.496328 -6.172715 -0.000000
v -7.984280 -5.383685 -0.000000
v -6.135553 -4.547128 -0.000000
v -0.940971 -0.794184 -0.000000
v -6.220782 -4.429820 -0.000000
v -1.046307 -0.649202 -0.000000
v -6.991149 -5.079140 -0.000000
v -0.717276 1.102074 -0.000000
v -0.795341 0.994627 -0.000000
v -8.754098 6.359997 -0.000000
v -0.993639 0.721693 -0.000000
v -1.191937 0.448759 -0.000000
v -1.270002 0.341312 -0.000000
v -8.060403 5.274828 -0.000000
v -7.507678 6.035590 -0.000000
v -7.984280 5.383685 -0.000000
v -8.496328 6.172715 -0.000000
v -7.587684 5.929553 -0.000000
v -6.220782 4.429820 -0.000000
v -1.046307 0.649202 -0.000000
v -6.135553 4.547128 -0.000000
v -0.940971 0.794184 -0.000000
v -6.991149 5.079140 -0.000000
vt 1.000000 0.000000
vt 1.000000 0.250000
vt 0.000000 0.500000
vt 1.000000 0.500000
vt 1.000000 0.750000
vt 1.000000 1.000000
vt 0.125000 1.000000
vt 0.125000 0.000000
vt 0.187500 0.750000
vt 0.125000 0.500000
vt 0.187500 0.250000
vt 0.500000 0.625000
vt 1.000000 0.625000
vt 0.500000 0.375000
vt 1.000000 0.375000
vt 0.375000 0.500000
vt 1.000000 0.625000
vt 0.500000 0.625000
vt 0.375000 0.500000
vt 0.500000 0.375000
vt 1.000000 0.375000
vt 1.000000 0.500000
vt 1.000000 1.000000
vt 0.125000 1.000000
vt 0.000000 0.500000
vt 0.125000 0.500000
vt 0.187500 0.750000
vt 1.000000 0.750000
vt 1.000000 0.250000
vt 0.187500 0.250000
vt 0.125000 0.000000
vt 1.000000 0.000000
vt 1.000000 0.625000
vt 0.500000 0.625000
vt 0.375000 0.500000
vt 0.500000 0.375000
vt 1.000000 0.375000
vt 1.000000 0.500000
vt 1.000000 1.000000
vt 0.125000 1.000000
vt 0.000000 0.500000
vt 0.125000 0.500000
vt 0.187500 0.750000
vt 1.000000 0.750000
vt 1.000000 0.250000
vt 0.187500 0.250000
vt 0.125000 0.000000
vt 1.000000 0.000000
vt 1.000000 0.625000
vt 0.500000 0.625000
vt 0.375000 0.500000
vt 0.500000 0.375000
vt 1.000000 0.375000
vt 1.000000 0.500000
vt 1.000000 1.000000
vt 0.125000 1.000000
vt 0.000000 0.500000
vt 0.125000 0.500000
vt 0.187500 0.750000
vt 1.000000 0.750000
vt 1.000000 0.250000
vt 0.187500 0.250000
vt 0.125000 0.000000
vt 1.000000 0.000000
vt 1.000000 0.625000
vt 0.500000 0.625000
vt 0.375000 0.500000
vt 0.500000 0.375000
vt 1.000000 0.375000
vt 1.000000 0.500000
vt 1.000000 1.000000
vt 0.125000 1.000000
vt 0.000000 0.500000
vt 0.125000 0.500000
vt 0.187500 0.750000
vt 1.000000 0.750000
vt 1.000000 0.250000
vt 0.187500 0.250000
vt 0.125000 0.000000
vt 1.000000 0.000000
vn 0.000000 0.000000 -1.000000
vn 0.000000 0.000000 -1.000000
vn 0.000000 0.000000 -1.000000
vn 0.000000 0.000000 -1.000000
vn 0.000000 0.000000 -1.000000
vn 0.000000 0.000000 -1.000000
vn 0.000000 0.000000 -1.000000
vn 0.000000 0.000000 -1.000000
vn -0.000000 0.000000 -1.000000
vn -0.000000 0.000000 -1.000000
vn 0.000000 0.000000 -1.000000
vn 0.000000 0.000000 -1.000000
vn 0.000000 -0.000000 -1.000000
vn 0.000000 -0.000000 -1.000000
vn 0.000000 0.000000 -1.000000
vn 0.000000 0.000000 -1.000000
vn 0.000000 -0.000000 -1.000000
vn 0.000000 -0.000000 -1.000000
vn 0.000000 -0.000000 -1.000000
vn 0.000000 0.000000 -1.000000
vn 0.000000 0.000000 -1.000000
vn 0.000000 0.000000 -1.000000
vn 0.000000 0.000000 -1.000000
vn 0.000000 0.000000 -1.000000
vn 0.000000 0.000000 -1.000000
vn 0.000000 0.000000 -1.000000
vn 0.000000 -0.000000 -1.000000
vn 0.000000 -0.000000 -1.000000
vn 0.000000 -0.000000 -1.000000
vn 0.000000 -0.000000 -1.000000
vn 0.000000 -0.000000 -1.000000
vn 0.000000 -0.000000 -1.000000
vn 0.000000 -0.000000 -1.000000
vn 0.000000 -0.000000 -1.000000
vn 0.000000 -0.000000 -1.000000
vn 0.000000 0.000000 -1.000000
vn 0.000000 0.000000 -1.000000
vn 0.000000 0.000000 -1.000000
vn 0.000000 -0.000000 -1.000000
vn 0.000000 -0.000000 -1.000000
vn 0.000000 0.000000 -1.000000
vn 0.000000 0.000000 -1.000000
vn 0.000000 -0.000000 -1.000000
vn 0.000000 -0.000000 -1.000000
vn -0.000000 -0.000000 -1.000000
vn -0.000000 -0.000000 -1.000000
vn 0.000000 -0.000000 -1.000000
vn 0.000000 -0.000000 -1.000000
vn -0.000000 0.000000 -1.000000
vn -0.000000 0.000000 -1.000000
vn -0.000000 0.000000 -1.000000
vn -0.000000 0.000000 -1.000000
vn -0.000000 0.000000 -1.000000
vn -0.000000 0.000000 -1.000000
vn -0.000000 -0.000000 -1.000000
vn -0.000000 -0.000000 -1.000000
vn 0.000000 -0.000000 -1.000000
vn 0.000000 -0.000000 -1.000000
vn -0.000000 0.000000 -1.000000
vn -0.000000 0.000000 -1.000000
vn -0.000000 0.000000 -1.000000
vn -0.000000 0.000000 -1.000000
vn -0.000000 0.000000 -1.000000
vn -0.000000 0.000000 -1.000000
vn -0.000000 0.000000 -1.000000
vn -0.000000 0.000000 -1.000000
vn -0.000000 0.000000 -1.000000
vn -0.000000 -0.000000 -1.000000
vn -0.000000 -0.000000 -1.000000
vn -0.000000 -0.000000 -1.000000
vn -0.000000 0.000000 -1.000000
vn -0.000000 0.000000 -1.000000
vn -0.000000 -0.000000 -1.000000
vn -0.000000 -0.000000 -1.000000
vn -0.000000 0.000000 -1.000000
vn -0.000000 0.000000 -1.000000
vn 0.000000 0.000000 -1.000000
vn 0.000000 0.000000 -1.000000
vn -0.000000 0.000000 -1.000000
vn -0.000000 0.000000 -1.000000
s 1
g Blade5
usemtl initialShadingGroup
f 16/16/1 14/14/2 12/12/3
f 13/13/4 12/12/3 4/4/5
f 12/12/3 14/14/2 4/4/5
f 14/14/2 15/15/6 4/4/5
s 2
f 3/3/7 10/10/8 7/7/9
f 10/10/8 9/9/10 7/7/9
f 6/6/11 7/7/9 5/5/12
f 7/7/9 9/9/10 5/5/12
f 3/3/7 8/8/13 10/10/8
f 10/10/8 8/8/13 11/11/14
f 2/2/15 11/11/14 1/1/16
f 11/11/14 8/8/13 1/1/16
s 3
f 32/19/17 30/20/18 28/18/19
f 29/17/20 28/18/19 20/22/21
f 28/18/19 30/20/18 20/22/21
f 30/20/18 31/21/22 20/22/21
s 4
f 19/25/23 26/26/24 23/24/25
f 26/26/24 25/27/26 23/24/25
f 22/23/27 23/24/25 21/28/28
f 23/24/25 25/27/26 21/28/28
f 19/25/23 24/31/29 26/26/24
f 26/26/24 24/31/29 27/30/30
f 18/29/31 27/30/30 17/32/32
f 27/30/30 24/31/29 17/32/32
s 5
f 48/35/33 46/36/34 44/34/35
f 45/33/36 44/34/35 36/38/37
f 44/34/35 46/36/34 36/38/37
f 46/36/34 47/37/38 36/38/37
s 6
f 35/41/39 42/42/40 39/40/41
f 42/42/40 41/43/42 39/40/41
f 38/39/43 39/40/41 37/44/44
f 39/40/41 41/43/42 37/44/44
f 35/41/39 40/47/45 42/42/40
f 42/42/40 40/47/45 43/46/46
f 34/45/47 43/46/46 33/48/48
f 43/46/46 40/47/45 33/48/48
s 7
f 64/51/49 62/52/50 60/50/51
f 61/49/52 60/50/51 52/54/53
f 60/50/51 62/52/50 52/54/53
f 62/52/50 63/53/54 52/54/53
s 8
f 51/57/55 58/58/56 55/56/57
f 58/58/56 57/59/58 55/56/57
f 54/55/59 55/56/57 53/60/60
f 55/56/57 57/59/58 53/60/60
f 51/57/55 56/63/61 58/58/56
f 58/58/56 56/63/61 59/62/62
f 50/61/63 59/62/62 49/64/64
f 59/62/62 56/63/61 49/64/64
s 9
f 80/67/65 78/68/66 76/66/67
f 77/65/68 76/66/67 68/70/69
f 76/66/67 78/68/66 68/70/69
f 78/68/66 79/69/70 68/70/69
s 10
f 67/73/71 74/74/72 71/72/73
f 74/74/72 73/75/74 71/72/73
f 70/71/75 71/72/73 69/76/76
f 71/72/73 73/75/74 69/76/76
f 67/73/71 72/79/77 74/74/72
f 74/74/72 72/79/77 75/78/78
f 66/77/79 75/78/78 65/80/80
f 75/78/78 72/79/77 65/80/80
