# This file uses centimeters as units for non-parametric coordinates.

mtllib si.mtl
g default
v 4.740767 0.038009 -1.963686
v 3.486135 0.038009 -3.059259
v 1.732669 0.038009 -4.183025
v 0.000002 0.038009 -4.527680
v -1.732664 0.038009 -4.183027
v -3.486133 0.038009 -3.059262
v -4.740760 0.038009 -1.963691
v -79.148293 0.038009 -0.000002
v -4.740723 0.038009 1.963687
v -3.486135 0.038009 3.059259
v -1.732667 0.038009 4.183025
v -0.000001 0.038009 4.527680
v 1.732666 0.038009 4.183026
v 3.486135 0.038009 3.059262
v 4.740769 0.038009 1.963689
v 79.148293 0.038009 -0.000000
v -0.000000 0.038009 -0.000000
vt 0.644356 0.783956
vt 0.610485 0.733265
vt 0.559794 0.699394
vt 0.500000 0.687500
vt 0.440206 0.699394
vt 0.389515 0.733265
vt 0.355644 0.783956
vt 0.343750 0.843750
vt 0.355644 0.903544
vt 0.389515 0.954235
vt 0.440206 0.988106
vt 0.500000 1.000000
vt 0.559794 0.988106
vt 0.610485 0.954235
vt 0.644356 0.903544
vt 0.656250 0.843750
vt 0.500000 0.837500
vn 0.000000 1.000000 0.000000
vn 0.000000 1.000000 0.000000
vn 0.000000 1.000000 -0.000000
vn 0.000000 1.000000 0.000000
vn 0.000000 1.000000 -0.000000
vn 0.000000 1.000000 -0.000000
vn 0.000000 1.000000 0.000000
vn 0.000000 1.000000 -0.000000
vn 0.000000 1.000000 -0.000000
vn 0.000000 1.000000 0.000000
vn 0.000000 1.000000 0.000000
vn 0.000000 1.000000 0.000000
vn 0.000000 1.000000 -0.000000
vn 0.000000 1.000000 -0.000000
vn 0.000000 1.000000 0.000000
vn 0.000000 1.000000 -0.000000
vn 0.000000 1.000000 -0.000000
s 1
g pCylinder1
usemtl initialShadingGroup
f 1/15/1 2/14/2 17/17/3
f 2/14/2 3/13/4 17/17/3
f 3/13/4 4/12/5 17/17/3
f 4/12/5 5/11/6 17/17/3
f 5/11/6 6/10/7 17/17/3
f 6/10/7 7/9/8 17/17/3
f 7/9/8 8/8/9 17/17/3
f 8/8/9 9/7/10 17/17/3
f 9/7/10 10/6/11 17/17/3
f 10/6/11 11/5/12 17/17/3
f 11/5/12 12/4/13 17/17/3
f 12/4/13 13/3/14 17/17/3
f 13/3/14 14/2/15 17/17/3
f 14/2/15 15/1/16 17/17/3
f 15/1/16 16/16/17 17/17/3
f 16/16/17 1/15/1 17/17/3
