# This file uses centimeters as units for non-parametric coordinates.

mtllib 1.mtl
g default
v 0.266933 0.007051 -0.582126
v 0.351702 0.007051 -0.582126
v 0.266933 -0.071592 -0.582126
v 0.060791 0.007051 -0.582126
v 0.060791 -0.071592 -0.582126
v -0.023979 0.007051 -0.582126
v 0.266933 0.085697 -0.582126
v 0.060791 0.085697 -0.582126
v -0.273060 0.151066 -0.582126
v -0.273060 0.029363 -0.582126
v -0.351703 0.151066 -0.582126
v -0.273060 0.447012 -0.582126
v -0.351703 0.447012 -0.582126
v -0.273060 0.568719 -0.582126
v -0.194413 0.151066 -0.582126
v -0.194413 0.447012 -0.582126
v -0.273060 -0.447016 -0.582126
v -0.273060 -0.568719 -0.582126
v -0.351703 -0.447016 -0.582126
v -0.273060 -0.151066 -0.582126
v -0.351703 -0.151066 -0.582126
v -0.273060 -0.029363 -0.582126
v -0.194413 -0.447016 -0.582126
v -0.194413 -0.151066 -0.582126
vt 0.000000 0.593750
vt 0.250000 0.750000
vt 0.250000 0.312500
vt 0.625000 0.750000
vt 0.625000 0.312500
vt 1.000000 0.593750
vt 0.250000 1.000000
vt 0.625000 1.000000
vt 0.000000 0.593750
vt 0.250000 0.750000
vt 0.250000 0.312500
vt 0.625000 0.750000
vt 0.625000 0.312500
vt 1.000000 0.593750
vt 0.250000 1.000000
vt 0.625000 1.000000
vt 0.000000 0.593750
vt 0.250000 0.750000
vt 0.250000 0.312500
vt 0.625000 0.750000
vt 0.625000 0.312500
vt 1.000000 0.593750
vt 0.250000 1.000000
vt 0.625000 1.000000
vn -0.000000 -0.000000 -1.000000
vn -0.000000 -0.000000 -1.000000
vn -0.000000 -0.000000 -1.000000
vn -0.000000 -0.000000 -1.000000
vn -0.000000 -0.000000 -1.000000
vn -0.000000 -0.000000 -1.000000
vn -0.000000 -0.000000 -1.000000
vn -0.000000 -0.000000 -1.000000
vn -0.000000 -0.000000 -1.000000
vn -0.000000 -0.000000 -1.000000
vn -0.000000 -0.000000 -1.000000
vn -0.000000 -0.000000 -1.000000
vn -0.000000 -0.000000 -1.000000
vn -0.000000 -0.000000 -1.000000
vn -0.000000 -0.000000 -1.000000
vn -0.000000 -0.000000 -1.000000
vn -0.000000 -0.000000 -1.000000
vn -0.000000 -0.000000 -1.000000
vn -0.000000 -0.000000 -1.000000
vn -0.000000 -0.000000 -1.000000
vn -0.000000 -0.000000 -1.000000
vn -0.000000 -0.000000 -1.000000
vn -0.000000 -0.000000 -1.000000
vn -0.000000 -0.000000 -1.000000
vn -0.000000 -0.000000 -1.000000
vn -0.000000 -0.000000 -1.000000
vn -0.000000 -0.000000 -1.000000
vn -0.000000 -0.000000 -1.000000
vn -0.000000 -0.000000 -1.000000
vn -0.000000 -0.000000 -1.000000
vn -0.000000 -0.000000 -1.000000
vn -0.000000 -0.000000 -1.000000
vn -0.000000 -0.000000 -1.000000
vn -0.000000 -0.000000 -1.000000
vn -0.000000 -0.000000 -1.000000
vn -0.000000 -0.000000 -1.000000
vn -0.000000 -0.000000 -1.000000
vn -0.000000 -0.000000 -1.000000
vn -0.000000 -0.000000 -1.000000
vn -0.000000 -0.000000 -1.000000
vn -0.000000 -0.000000 -1.000000
vn -0.000000 -0.000000 -1.000000
vn -0.000000 -0.000000 -1.000000
vn -0.000000 -0.000000 -1.000000
vn -0.000000 -0.000000 -1.000000
vn -0.000000 -0.000000 -1.000000
vn -0.000000 -0.000000 -1.000000
vn -0.000000 -0.000000 -1.000000
vn -0.000000 -0.000000 -1.000000
vn -0.000000 -0.000000 -1.000000
vn -0.000000 -0.000000 -1.000000
vn -0.000000 -0.000000 -1.000000
vn -0.000000 -0.000000 -1.000000
vn -0.000000 -0.000000 -1.000000
vn -0.000000 -0.000000 -1.000000
vn -0.000000 -0.000000 -1.000000
vn -0.000000 -0.000000 -1.000000
vn -0.000000 -0.000000 -1.000000
vn -0.000000 -0.000000 -1.000000
vn -0.000000 -0.000000 -1.000000
s off
g uno
usemtl lambert7SG
f 2/1/1 3/3/2 1/2/3
f 3/3/4 5/5/5 4/4/6 1/2/7
f 5/5/8 6/6/9 4/4/10
f 2/1/11 1/2/12 7/7/13
f 1/2/14 4/4/15 8/8/16 7/7/17
f 4/4/18 6/6/19 8/8/20
f 10/9/21 11/11/22 9/10/23
f 11/11/24 13/13/25 12/12/26 9/10/27
f 13/13/28 14/14/29 12/12/30
f 10/9/31 9/10/32 15/15/33
f 9/10/34 12/12/35 16/16/36 15/15/37
f 12/12/38 14/14/39 16/16/40
f 18/17/41 19/19/42 17/18/43
f 19/19/44 21/21/45 20/20/46 17/18/47
f 21/21/48 22/22/49 20/20/50
f 18/17/51 17/18/52 23/23/53
f 17/18/54 20/20/55 24/24/56 23/23/57
f 20/20/58 22/22/59 24/24/60
g default
v 0.842809 0.273845 -0.498234
v 0.716936 0.520885 -0.498234
v 0.520885 0.716936 -0.498234
v 0.273845 0.842809 -0.498234
v 0.000000 0.886182 -0.498234
v -0.273845 0.842809 -0.498234
v -0.520885 0.716936 -0.498234
v -0.716936 0.520885 -0.498234
v -0.842809 0.273845 -0.498234
v -0.886182 -0.000000 -0.498234
v -0.842809 -0.273845 -0.498234
v -0.716936 -0.520885 -0.498234
v -0.520885 -0.716936 -0.498234
v -0.273845 -0.842809 -0.498234
v -0.000000 -0.886182 -0.498234
v 0.273845 -0.842809 -0.498234
v 0.520884 -0.716936 -0.498234
v 0.716936 -0.520885 -0.498234
v 0.842809 -0.273845 -0.498234
v 0.886182 -0.000000 -0.498234
v 0.000000 -0.000000 -0.498234
vt 0.648603 0.107966
vt 0.626409 0.064408
vt 0.591842 0.029841
vt 0.548284 0.007647
vt 0.500000 -0.000000
vt 0.451716 0.007647
vt 0.408159 0.029841
vt 0.373591 0.064409
vt 0.351397 0.107966
vt 0.343750 0.156250
vt 0.351397 0.204534
vt 0.373591 0.248091
vt 0.408159 0.282659
vt 0.451716 0.304853
vt 0.500000 0.312500
vt 0.548284 0.304853
vt 0.591841 0.282659
vt 0.626409 0.248091
vt 0.648603 0.204534
vt 0.656250 0.156250
vt 0.500000 0.150000
vn 0.000000 -0.000000 -1.000000
vn 0.000000 -0.000000 -1.000000
vn 0.000000 -0.000000 -1.000000
vn 0.000000 -0.000000 -1.000000
vn 0.000000 -0.000000 -1.000000
vn 0.000000 -0.000000 -1.000000
vn 0.000000 -0.000000 -1.000000
vn 0.000000 -0.000000 -1.000000
vn 0.000000 -0.000000 -1.000000
vn 0.000000 -0.000000 -1.000000
vn 0.000000 -0.000000 -1.000000
vn 0.000000 -0.000000 -1.000000
vn 0.000000 -0.000000 -1.000000
vn 0.000000 -0.000000 -1.000000
vn 0.000000 -0.000000 -1.000000
vn 0.000000 -0.000000 -1.000000
vn 0.000000 -0.000000 -1.000000
vn 0.000000 -0.000000 -1.000000
vn 0.000000 -0.000000 -1.000000
vn 0.000000 -0.000000 -1.000000
vn 0.000000 -0.000000 -1.000000
s 1
g plano
usemtl initialShadingGroup
f 26/26/61 25/25/62 45/45/63
f 27/27/64 26/26/61 45/45/63
f 28/28/65 27/27/64 45/45/63
f 29/29/66 28/28/65 45/45/63
f 30/30/67 29/29/66 45/45/63
f 31/31/68 30/30/67 45/45/63
f 32/32/69 31/31/68 45/45/63
f 33/33/70 32/32/69 45/45/63
f 34/34/71 33/33/70 45/45/63
f 35/35/72 34/34/71 45/45/63
f 36/36/73 35/35/72 45/45/63
f 37/37/74 36/36/73 45/45/63
f 38/38/75 37/37/74 45/45/63
f 39/39/76 38/38/75 45/45/63
f 40/40/77 39/39/76 45/45/63
f 41/41/78 40/40/77 45/45/63
f 42/42/79 41/41/78 45/45/63
f 43/43/80 42/42/79 45/45/63
f 44/44/81 43/43/80 45/45/63
f 25/25/62 44/44/81 45/45/63
