# This file uses centimeters as units for non-parametric coordinates.

mtllib 3.mtl
g default
v 0.557824 0.000880 -0.581723
v 0.473050 -0.077763 -0.581723
v 0.266912 -0.077763 -0.581723
v 0.182139 0.000880 -0.581723
v 0.473050 0.000880 -0.581723
v 0.266912 0.000880 -0.581723
v 0.473050 0.079526 -0.581723
v 0.266912 0.079526 -0.581723
v 0.095757 0.000880 -0.581723
v 0.010983 -0.077763 -0.581723
v -0.195155 -0.077763 -0.581723
v -0.279929 0.000880 -0.581723
v 0.010983 0.000880 -0.581723
v -0.195155 0.000880 -0.581723
v 0.010983 0.079526 -0.581723
v -0.195155 0.079526 -0.581723
v -0.288187 0.030430 -0.581723
v -0.366833 0.115204 -0.581723
v -0.366833 0.321342 -0.581723
v -0.288187 0.406116 -0.581723
v -0.288187 0.115204 -0.581723
v -0.288187 0.321342 -0.581723
v -0.209540 0.115204 -0.581723
v -0.209540 0.321342 -0.581723
v 0.095757 0.435001 -0.581723
v 0.010983 0.356354 -0.581723
v -0.195155 0.356354 -0.581723
v -0.279929 0.435001 -0.581723
v 0.010983 0.435001 -0.581723
v -0.195155 0.435001 -0.581723
v 0.010983 0.513643 -0.581723
v -0.195155 0.513643 -0.581723
v -0.288187 -0.400191 -0.581723
v -0.366833 -0.315417 -0.581723
v -0.366833 -0.109279 -0.581723
v -0.288187 -0.024505 -0.581723
v -0.288187 -0.315417 -0.581723
v -0.288187 -0.109279 -0.581723
v -0.209540 -0.315417 -0.581723
v -0.209540 -0.109279 -0.581723
v 0.095757 -0.423379 -0.581723
v 0.010983 -0.502025 -0.581723
v -0.195155 -0.502025 -0.581723
v -0.279929 -0.423379 -0.581723
v 0.010983 -0.423379 -0.581723
v -0.195155 -0.423379 -0.581723
v 0.010983 -0.344736 -0.581723
v -0.195155 -0.344736 -0.581723
vt 0.000000 0.593750
vt 0.250000 0.312500
vt 0.250000 0.750000
vt 0.625000 0.312500
vt 0.625000 0.750000
vt 1.000000 0.593750
vt 0.250000 1.000000
vt 0.625000 1.000000
vt 0.000000 0.593750
vt 0.250000 0.312500
vt 0.250000 0.750000
vt 0.625000 0.312500
vt 0.625000 0.750000
vt 1.000000 0.593750
vt 0.250000 1.000000
vt 0.625000 1.000000
vt 0.000000 0.593750
vt 0.250000 0.312500
vt 0.250000 0.750000
vt 0.625000 0.312500
vt 0.625000 0.750000
vt 1.000000 0.593750
vt 0.250000 1.000000
vt 0.625000 1.000000
vt 0.000000 0.593750
vt 0.250000 0.312500
vt 0.250000 0.750000
vt 0.625000 0.312500
vt 0.625000 0.750000
vt 1.000000 0.593750
vt 0.250000 1.000000
vt 0.625000 1.000000
vt 0.000000 0.593750
vt 0.250000 0.312500
vt 0.250000 0.750000
vt 0.625000 0.312500
vt 0.625000 0.750000
vt 1.000000 0.593750
vt 0.250000 1.000000
vt 0.625000 1.000000
vt 0.000000 0.593750
vt 0.250000 0.312500
vt 0.250000 0.750000
vt 0.625000 0.312500
vt 0.625000 0.750000
vt 1.000000 0.593750
vt 0.250000 1.000000
vt 0.625000 1.000000
vn -0.000000 -0.000000 -1.000000
vn -0.000000 -0.000000 -1.000000
vn -0.000000 -0.000000 -1.000000
vn -0.000000 -0.000000 -1.000000
vn -0.000000 -0.000000 -1.000000
vn -0.000000 -0.000000 -1.000000
vn -0.000000 -0.000000 -1.000000
vn -0.000000 -0.000000 -1.000000
vn -0.000000 -0.000000 -1.000000
vn -0.000000 -0.000000 -1.000000
vn -0.000000 -0.000000 -1.000000
vn -0.000000 -0.000000 -1.000000
vn -0.000000 -0.000000 -1.000000
vn -0.000000 -0.000000 -1.000000
vn -0.000000 -0.000000 -1.000000
vn -0.000000 -0.000000 -1.000000
vn -0.000000 -0.000000 -1.000000
vn -0.000000 -0.000000 -1.000000
vn -0.000000 -0.000000 -1.000000
vn -0.000000 -0.000000 -1.000000
vn -0.000000 -0.000000 -1.000000
vn -0.000000 -0.000000 -1.000000
vn -0.000000 -0.000000 -1.000000
vn -0.000000 -0.000000 -1.000000
vn -0.000000 -0.000000 -1.000000
vn -0.000000 -0.000000 -1.000000
vn -0.000000 -0.000000 -1.000000
vn -0.000000 -0.000000 -1.000000
vn -0.000000 -0.000000 -1.000000
vn -0.000000 -0.000000 -1.000000
vn -0.000000 -0.000000 -1.000000
vn -0.000000 -0.000000 -1.000000
vn -0.000000 -0.000000 -1.000000
vn -0.000000 -0.000000 -1.000000
vn -0.000000 -0.000000 -1.000000
vn -0.000000 -0.000000 -1.000000
vn -0.000000 -0.000000 -1.000000
vn -0.000000 -0.000000 -1.000000
vn -0.000000 -0.000000 -1.000000
vn -0.000000 -0.000000 -1.000000
vn -0.000000 -0.000000 -1.000000
vn -0.000000 -0.000000 -1.000000
vn -0.000000 -0.000000 -1.000000
vn -0.000000 -0.000000 -1.000000
vn -0.000000 -0.000000 -1.000000
vn -0.000000 -0.000000 -1.000000
vn -0.000000 -0.000000 -1.000000
vn -0.000000 -0.000000 -1.000000
vn -0.000000 -0.000000 -1.000000
vn -0.000000 -0.000000 -1.000000
vn -0.000000 -0.000000 -1.000000
vn -0.000000 -0.000000 -1.000000
vn -0.000000 -0.000000 -1.000000
vn -0.000000 -0.000000 -1.000000
vn -0.000000 -0.000000 -1.000000
vn -0.000000 -0.000000 -1.000000
vn -0.000000 -0.000000 -1.000000
vn -0.000000 -0.000000 -1.000000
vn -0.000000 -0.000000 -1.000000
vn -0.000000 -0.000000 -1.000000
vn -0.000000 -0.000000 -1.000000
vn -0.000000 -0.000000 -1.000000
vn -0.000000 -0.000000 -1.000000
vn -0.000000 -0.000000 -1.000000
vn -0.000000 -0.000000 -1.000000
vn -0.000000 -0.000000 -1.000000
vn -0.000000 -0.000000 -1.000000
vn -0.000000 -0.000000 -1.000000
vn -0.000000 -0.000000 -1.000000
vn -0.000000 -0.000000 -1.000000
vn -0.000000 -0.000000 -1.000000
vn -0.000000 -0.000000 -1.000000
vn -0.000000 -0.000000 -1.000000
vn -0.000000 -0.000000 -1.000000
vn -0.000000 -0.000000 -1.000000
vn -0.000000 -0.000000 -1.000000
vn -0.000000 -0.000000 -1.000000
vn -0.000000 -0.000000 -1.000000
vn -0.000000 -0.000000 -1.000000
vn -0.000000 -0.000000 -1.000000
vn -0.000000 -0.000000 -1.000000
vn -0.000000 -0.000000 -1.000000
vn -0.000000 -0.000000 -1.000000
vn -0.000000 -0.000000 -1.000000
vn -0.000000 -0.000000 -1.000000
vn -0.000000 -0.000000 -1.000000
vn -0.000000 -0.000000 -1.000000
vn -0.000000 -0.000000 -1.000000
vn -0.000000 -0.000000 -1.000000
vn -0.000000 -0.000000 -1.000000
vn -0.000000 -0.000000 -1.000000
vn -0.000000 -0.000000 -1.000000
vn -0.000000 -0.000000 -1.000000
vn -0.000000 -0.000000 -1.000000
vn -0.000000 -0.000000 -1.000000
vn -0.000000 -0.000000 -1.000000
vn -0.000000 -0.000000 -1.000000
vn -0.000000 -0.000000 -1.000000
vn -0.000000 -0.000000 -1.000000
vn -0.000000 -0.000000 -1.000000
vn -0.000000 -0.000000 -1.000000
vn -0.000000 -0.000000 -1.000000
vn -0.000000 -0.000000 -1.000000
vn -0.000000 -0.000000 -1.000000
vn -0.000000 -0.000000 -1.000000
vn -0.000000 -0.000000 -1.000000
vn -0.000000 -0.000000 -1.000000
vn -0.000000 -0.000000 -1.000000
vn -0.000000 -0.000000 -1.000000
vn -0.000000 -0.000000 -1.000000
vn -0.000000 -0.000000 -1.000000
vn -0.000000 -0.000000 -1.000000
vn -0.000000 -0.000000 -1.000000
vn -0.000000 -0.000000 -1.000000
vn -0.000000 -0.000000 -1.000000
vn -0.000000 -0.000000 -1.000000
vn -0.000000 -0.000000 -1.000000
vn -0.000000 -0.000000 -1.000000
vn -0.000000 -0.000000 -1.000000
vn -0.000000 -0.000000 -1.000000
s off
g tres
usemtl lambert7SG
f 1/1/1 2/2/2 5/3/3
f 2/2/4 3/4/5 6/5/6 5/3/7
f 3/4/8 4/6/9 6/5/10
f 1/1/11 5/3/12 7/7/13
f 5/3/14 6/5/15 8/8/16 7/7/17
f 6/5/18 4/6/19 8/8/20
f 9/9/21 10/10/22 13/11/23
f 10/10/24 11/12/25 14/13/26 13/11/27
f 11/12/28 12/14/29 14/13/30
f 9/9/31 13/11/32 15/15/33
f 13/11/34 14/13/35 16/16/36 15/15/37
f 14/13/38 12/14/39 16/16/40
f 17/17/41 18/18/42 21/19/43
f 18/18/44 19/20/45 22/21/46 21/19/47
f 19/20/48 20/22/49 22/21/50
f 17/17/51 21/19/52 23/23/53
f 21/19/54 22/21/55 24/24/56 23/23/57
f 22/21/58 20/22/59 24/24/60
f 25/25/61 26/26/62 29/27/63
f 26/26/64 27/28/65 30/29/66 29/27/67
f 27/28/68 28/30/69 30/29/70
f 25/25/71 29/27/72 31/31/73
f 29/27/74 30/29/75 32/32/76 31/31/77
f 30/29/78 28/30/79 32/32/80
f 33/33/81 34/34/82 37/35/83
f 34/34/84 35/36/85 38/37/86 37/35/87
f 35/36/88 36/38/89 38/37/90
f 33/33/91 37/35/92 39/39/93
f 37/35/94 38/37/95 40/40/96 39/39/97
f 38/37/98 36/38/99 40/40/100
f 41/41/101 42/42/102 45/43/103
f 42/42/104 43/44/105 46/45/106 45/43/107
f 43/44/108 44/46/109 46/45/110
f 41/41/111 45/43/112 47/47/113
f 45/43/114 46/45/115 48/48/116 47/47/117
f 46/45/118 44/46/119 48/48/120
g default
v 0.842809 0.273845 -0.498234
v 0.716936 0.520885 -0.498234
v 0.520885 0.716936 -0.498234
v 0.273845 0.842809 -0.498234
v 0.000000 0.886182 -0.498234
v -0.273845 0.842809 -0.498234
v -0.520885 0.716936 -0.498234
v -0.716936 0.520885 -0.498234
v -0.842809 0.273845 -0.498234
v -0.886182 -0.000000 -0.498234
v -0.842809 -0.273845 -0.498234
v -0.716936 -0.520885 -0.498234
v -0.520885 -0.716936 -0.498234
v -0.273845 -0.842809 -0.498234
v -0.000000 -0.886182 -0.498234
v 0.273845 -0.842809 -0.498234
v 0.520884 -0.716936 -0.498234
v 0.716936 -0.520885 -0.498234
v 0.842809 -0.273845 -0.498234
v 0.886182 -0.000000 -0.498234
v 0.000000 -0.000000 -0.498234
vt 0.648603 0.107966
vt 0.626409 0.064408
vt 0.591842 0.029841
vt 0.548284 0.007647
vt 0.500000 -0.000000
vt 0.451716 0.007647
vt 0.408159 0.029841
vt 0.373591 0.064409
vt 0.351397 0.107966
vt 0.343750 0.156250
vt 0.351397 0.204534
vt 0.373591 0.248091
vt 0.408159 0.282659
vt 0.451716 0.304853
vt 0.500000 0.312500
vt 0.548284 0.304853
vt 0.591841 0.282659
vt 0.626409 0.248091
vt 0.648603 0.204534
vt 0.656250 0.156250
vt 0.500000 0.150000
vn 0.000000 -0.000000 -1.000000
vn 0.000000 -0.000000 -1.000000
vn 0.000000 -0.000000 -1.000000
vn 0.000000 -0.000000 -1.000000
vn 0.000000 -0.000000 -1.000000
vn 0.000000 -0.000000 -1.000000
vn 0.000000 -0.000000 -1.000000
vn 0.000000 -0.000000 -1.000000
vn 0.000000 -0.000000 -1.000000
vn 0.000000 -0.000000 -1.000000
vn 0.000000 -0.000000 -1.000000
vn 0.000000 -0.000000 -1.000000
vn 0.000000 -0.000000 -1.000000
vn 0.000000 -0.000000 -1.000000
vn 0.000000 -0.000000 -1.000000
vn 0.000000 -0.000000 -1.000000
vn 0.000000 -0.000000 -1.000000
vn 0.000000 -0.000000 -1.000000
vn 0.000000 -0.000000 -1.000000
vn 0.000000 -0.000000 -1.000000
vn 0.000000 -0.000000 -1.000000
s 1
g plano
usemtl initialShadingGroup
f 50/50/121 49/49/122 69/69/123
f 51/51/124 50/50/121 69/69/123
f 52/52/125 51/51/124 69/69/123
f 53/53/126 52/52/125 69/69/123
f 54/54/127 53/53/126 69/69/123
f 55/55/128 54/54/127 69/69/123
f 56/56/129 55/55/128 69/69/123
f 57/57/130 56/56/129 69/69/123
f 58/58/131 57/57/130 69/69/123
f 59/59/132 58/58/131 69/69/123
f 60/60/133 59/59/132 69/69/123
f 61/61/134 60/60/133 69/69/123
f 62/62/135 61/61/134 69/69/123
f 63/63/136 62/62/135 69/69/123
f 64/64/137 63/63/136 69/69/123
f 65/65/138 64/64/137 69/69/123
f 66/66/139 65/65/138 69/69/123
f 67/67/140 66/66/139 69/69/123
f 68/68/141 67/67/140 69/69/123
f 49/49/122 68/68/141 69/69/123
