# This file uses centimeters as units for non-parametric coordinates.

mtllib BarreraC1.mtl
g default
v 12.481167 -9.110558 0.003064
v 4.767383 -14.714951 0.003064
v 0.731286 -2.293124 0.003064
v 1.915938 -2.293124 0.003064
v 1.916415 -1.434816 0.003064
v -0.731284 -2.293124 0.003064
v -1.920190 -2.293124 0.003064
v -1.920671 -1.437910 0.003064
v -1.921454 -0.042460 0.003064
v -1.922239 1.354129 0.003064
v -1.922855 2.450930 0.003064
v -12.481168 9.025638 0.003064
v -4.767383 14.630032 0.003064
v -0.810151 2.450930 0.003064
v 1.917189 -0.042460 0.003064
v 15.427570 -0.042460 0.003064
v 4.767381 14.630034 0.003064
v 0.810152 2.450930 0.003064
v 1.917964 1.351022 0.003064
v 12.481168 9.025639 0.003064
v 1.918576 2.450930 0.003064
v -15.427570 -0.042461 0.003064
v -4.767380 -14.714952 0.003064
v -12.481166 -9.110559 0.003064
vt 0.626409 0.248091
vt 0.548284 0.304853
vt 0.507406 0.173753
vt 0.519405 0.174050
vt 0.519409 0.165061
vt 0.373591 0.064409
vt 0.451716 0.007647
vt 0.491795 0.125809
vt 0.480525 0.126088
vt 0.480532 0.136818
vt 0.519417 0.150777
vt 0.656250 0.156250
vt 0.548284 0.007647
vt 0.508205 0.125809
vt 0.519425 0.136847
vt 0.626409 0.064409
vt 0.519431 0.126087
vt 0.480540 0.150778
vt 0.343750 0.156250
vt 0.451716 0.304853
vt 0.492594 0.173753
vt 0.480547 0.165095
vt 0.373591 0.248091
vt 0.480552 0.174051
vn 0.000000 0.000000 -1.000000
vn 0.000000 0.000000 -1.000000
vn 0.000000 0.000000 -1.000000
vn 0.000000 0.000000 -1.000000
vn 0.000000 0.000000 -1.000000
vn 0.000000 0.000000 -1.000000
vn 0.000000 0.000000 -1.000000
vn 0.000000 0.000000 -1.000000
vn 0.000000 0.000000 -1.000000
vn 0.000000 0.000000 -1.000000
vn 0.000000 0.000000 -1.000000
vn 0.000000 0.000000 -1.000000
vn -0.000000 0.000000 -1.000000
vn -0.000000 0.000000 -1.000000
vn -0.000000 0.000000 -1.000000
vn -0.000000 0.000000 -1.000000
vn -0.000000 0.000000 -1.000000
vn 0.000000 0.000000 -1.000000
vn 0.000000 0.000000 -1.000000
vn 0.000000 0.000000 -1.000000
vn 0.000000 0.000000 -1.000000
vn 0.000000 0.000000 -1.000000
vn 0.000000 0.000000 -1.000000
vn 0.000000 0.000000 -1.000000
s 1
g BarreraC1
usemtl initialShadingGroup
f 1/1/1 2/2/2 3/3/3 4/4/4 5/5/5
f 12/6/6 13/7/7 14/8/8 11/9/9 10/10/10
f 15/11/11 16/12/12 1/1/1 5/5/5
f 14/8/8 13/7/7 17/13/13 18/14/14
f 19/15/15 20/16/16 16/12/12 15/11/11
f 17/13/13 20/16/16 19/15/15 21/17/17 18/14/14
f 9/18/18 22/19/19 12/6/6 10/10/10
f 3/3/3 2/2/2 23/20/20 6/21/21
f 8/22/22 24/23/23 22/19/19 9/18/18
f 23/20/20 24/23/23 8/22/22 7/24/24 6/21/21
