# This file uses centimeters as units for non-parametric coordinates.

mtllib BarreraE3.mtl
g default
v -6.873790 2.005538 0.011440
v -6.843802 2.284543 0.011440
v -9.179137 5.005723 0.011440
v -9.243554 4.353680 0.011440
v -6.394175 2.527892 0.011440
v -8.916379 5.605946 0.011440
v 12.425060 -9.023320 0.011440
v 4.748946 -14.600344 0.011440
v 0.004846 0.000493 0.011440
v -5.824851 2.857087 0.011440
v -8.481003 6.095596 0.011440
v -5.407525 3.293763 0.011440
v -5.295847 3.234776 0.011440
v -5.015694 3.198600 0.011440
v -4.792039 3.247602 0.011440
v -7.375433 6.643504 0.011440
v -7.915625 6.426742 0.011440
v -4.594472 3.363318 0.011440
v -4.442333 3.534422 0.011440
v -4.350515 3.744165 0.011440
v -7.341518 6.926186 0.011440
v -8.427488 6.126940 0.011440
v -4.328005 3.972016 0.011440
v -4.925872 4.650859 0.011440
v -5.052131 4.654038 0.011440
v -4.377006 4.195671 0.011440
v -7.231200 7.184203 0.011440
v -4.663826 4.545376 0.011440
v -5.202527 5.239040 0.011440
v -4.492723 4.393238 0.011440
v -7.051350 7.395976 0.011440
v -5.537739 5.805909 0.011440
v -5.810542 6.239353 0.011440
v -4.610647 3.353845 0.011440
v -6.819573 7.540775 0.011440
v -5.700224 6.497370 0.011440
v -6.558556 7.604426 0.011440
v -5.670236 6.776375 0.011440
v 15.357074 0.000493 0.011440
v -6.293851 7.580699 0.011440
v -5.723514 7.049057 0.011440
v -6.051368 7.471915 0.011440
v -5.854844 7.288724 0.011440
v -4.739256 14.601331 0.011440
v 4.748945 14.601333 0.011440
v 12.425061 9.024309 0.011440
v -12.415370 9.024306 0.011440
v -6.984108 1.747520 0.011440
v -9.103327 3.713644 0.011440
v -7.163958 1.535747 0.011440
v -8.772181 3.148267 0.011440
v -8.406722 2.696237 0.011440
v -7.395736 1.390948 0.011440
v -8.515084 2.434353 0.011440
v -7.656752 1.327297 0.011440
v -8.545072 2.155348 0.011440
v -7.921457 1.351025 0.011440
v -8.491793 1.882667 0.011440
v -8.163940 1.459809 0.011440
v -8.360464 1.643000 0.011440
v -4.739253 -14.600345 0.011440
v -12.415368 -9.023322 0.011440
v -15.347384 0.000492 0.011440
vt 0.626409 0.248091
vt 0.548284 0.304853
vt 0.500000 0.150000
vt 0.656250 0.156250
vt 0.451716 0.007647
vt 0.548284 0.007647
vt 0.626409 0.064409
vt 0.373591 0.064409
vt 0.453025 0.118193
vt 0.453190 0.118096
vt 0.454738 0.116376
vt 0.455673 0.114290
vt 0.455902 0.112045
vt 0.455403 0.109858
vt 0.454225 0.107945
vt 0.452484 0.106492
vt 0.449817 0.105521
vt 0.448532 0.105522
vt 0.447001 0.099808
vt 0.443589 0.094319
vt 0.440813 0.090127
vt 0.441936 0.087562
vt 0.442241 0.084812
vt 0.441699 0.082144
vt 0.440362 0.079821
vt 0.438362 0.078069
vt 0.435894 0.077061
vt 0.433200 0.076894
vt 0.430543 0.077586
vt 0.428184 0.079068
vt 0.426354 0.081195
vt 0.425231 0.083759
vt 0.424886 0.086547
vt 0.419388 0.088814
vt 0.414178 0.091890
vt 0.451716 0.304853
vt 0.373591 0.248091
vt 0.343750 0.156250
vt 0.413634 0.092227
vt 0.409203 0.097323
vt 0.406528 0.103459
vt 0.405873 0.110036
vt 0.407300 0.116408
vt 0.410670 0.121953
vt 0.414390 0.126345
vt 0.413287 0.129019
vt 0.412982 0.131834
vt 0.413524 0.134552
vt 0.414861 0.136906
vt 0.416861 0.138666
vt 0.419329 0.139660
vt 0.422023 0.139791
vt 0.424679 0.139045
vt 0.427038 0.137496
vt 0.428869 0.135296
vt 0.429991 0.132659
vt 0.430297 0.129844
vt 0.434873 0.127216
vt 0.440667 0.123678
vt 0.444915 0.119121
vt 0.446051 0.119668
vt 0.448903 0.119918
vt 0.451179 0.119334
vn 0.000000 0.000000 -1.000000
vn 0.000000 0.000000 -1.000000
vn 0.000000 0.000000 -1.000000
vn 0.000000 0.000000 -1.000000
vn 0.000000 0.000000 -1.000000
vn 0.000000 0.000000 -1.000000
vn 0.000000 0.000000 -1.000000
vn 0.000000 0.000000 -1.000000
vn 0.000000 0.000000 -1.000000
vn 0.000000 0.000000 -1.000000
vn 0.000000 0.000000 -1.000000
vn 0.000000 0.000000 -1.000000
vn 0.000000 0.000000 -1.000000
vn 0.000000 0.000000 -1.000000
vn 0.000000 0.000000 -1.000000
vn 0.000000 0.000000 -1.000000
vn 0.000000 0.000000 -1.000000
vn 0.000000 0.000000 -1.000000
vn 0.000000 0.000000 -1.000000
vn 0.000000 0.000000 -1.000000
vn 0.000000 0.000000 -1.000000
vn 0.000000 0.000000 -1.000000
vn 0.000000 0.000000 -1.000000
vn 0.000000 0.000000 -1.000000
vn 0.000000 0.000000 -1.000000
vn 0.000000 0.000000 -1.000000
vn 0.000000 0.000000 -1.000000
vn 0.000000 0.000000 -1.000000
vn 0.000000 0.000000 -1.000000
vn 0.000000 0.000000 -1.000000
vn 0.000000 0.000000 -1.000000
vn 0.000000 0.000000 -1.000000
vn 0.000000 0.000000 -1.000000
vn 0.000000 0.000000 -1.000000
vn 0.000000 0.000000 -1.000000
vn 0.000000 0.000000 -1.000000
vn 0.000000 0.000000 -1.000000
vn 0.000000 0.000000 -1.000000
vn 0.000000 0.000000 -1.000000
vn 0.000000 0.000000 -1.000000
vn 0.000000 0.000000 -1.000000
vn 0.000000 0.000000 -1.000000
vn 0.000000 0.000000 -1.000000
vn 0.000000 0.000000 -1.000000
vn 0.000000 0.000000 -1.000000
vn 0.000000 0.000000 -1.000000
vn 0.000000 0.000000 -1.000000
vn 0.000000 0.000000 -1.000000
vn 0.000000 0.000000 -1.000000
vn 0.000000 0.000000 -1.000000
vn 0.000000 0.000000 -1.000000
vn 0.000000 0.000000 -1.000000
vn 0.000000 0.000000 -1.000000
vn 0.000000 0.000000 -1.000000
vn 0.000000 0.000000 -1.000000
vn 0.000000 0.000000 -1.000000
vn 0.000000 0.000000 -1.000000
vn 0.000000 0.000000 -1.000000
vn 0.000000 0.000000 -1.000000
vn 0.000000 0.000000 -1.000000
vn 0.000000 0.000000 -1.000000
vn 0.000000 0.000000 -1.000000
vn 0.000000 0.000000 -1.000000
s 1
g BarreraE3
usemtl initialShadingGroup
f 7/1/1 8/2/2 9/3/3
f 39/4/4 7/1/1 9/3/3
f 44/5/5 45/6/6 9/3/3
f 46/7/7 39/4/4 9/3/3
f 45/6/6 46/7/7 9/3/3
f 47/8/8 44/5/5 9/3/3 34/9/9 18/10/10 19/11/11 20/12/12 23/13/13 26/14/14 30/15/15 28/16/16 24/17/17 25/18/18 29/19/19 32/20/20 33/21/21 36/22/22 38/23/23 41/24/24 43/25/25 42/26/26 40/27/27 37/28/28 35/29/29 31/30/30 27/31/31 21/32/32 16/33/33 17/34/34 22/35/35
f 8/2/2 61/36/36 9/3/3
f 62/37/37 63/38/38 9/3/3
f 61/36/36 62/37/37 9/3/3
f 63/38/38 47/8/8 22/35/35 11/39/39 6/40/40 3/41/41 4/42/42 49/43/43 51/44/44 52/45/45 54/46/46 56/47/47 58/48/48 60/49/49 59/50/50 57/51/51 55/52/52 53/53/53 50/54/54 48/55/55 1/56/56 2/57/57 5/58/58 10/59/59 12/60/60 13/61/61 14/62/62 15/63/63 34/9/9 9/3/3
