# This file uses centimeters as units for non-parametric coordinates.

mtllib BarreraC2.mtl
g default
v -12.476482 9.073200 0.021643
v -4.762697 14.677594 0.021643
v 0.004686 0.005102 0.021643
v 4.639842 0.005102 0.021643
v 3.188654 2.318390 0.021643
v 4.772067 14.677596 0.021643
v 2.579871 3.288832 0.021643
v 5.835136 5.328400 0.021643
v 8.351707 1.306842 0.021643
v 6.274056 0.005102 0.021643
v 5.100935 -0.729910 0.021643
v 15.432256 0.005102 0.021643
v 12.485852 -9.062996 0.021643
v 6.302847 4.580983 0.021643
v 12.485853 9.073201 0.021643
v 4.772068 -14.667389 0.021643
v -15.422885 0.005101 0.021643
v -4.762694 -14.667390 0.021643
v -12.476481 -9.062997 0.021643
vt 0.373591 0.064409
vt 0.451716 0.007647
vt 0.500000 0.150000
vt 0.546945 0.151878
vt 0.532247 0.128165
vt 0.548284 0.007647
vt 0.656250 0.156250
vt 0.626409 0.248091
vt 0.551615 0.159606
vt 0.563496 0.152540
vt 0.626409 0.064409
vt 0.584538 0.140369
vt 0.563788 0.106809
vt 0.559051 0.099380
vt 0.526081 0.118519
vt 0.548284 0.304853
vt 0.343750 0.156250
vt 0.451716 0.304853
vt 0.373591 0.248091
vn 0.000000 0.000000 -1.000000
vn 0.000000 0.000000 -1.000000
vn 0.000000 0.000000 -1.000000
vn 0.000000 0.000000 -1.000000
vn 0.000000 0.000000 -1.000000
vn 0.000000 0.000000 -1.000000
vn 0.000000 0.000000 -1.000000
vn 0.000000 0.000000 -1.000000
vn 0.000000 0.000000 -1.000000
vn 0.000000 0.000000 -1.000000
vn 0.000000 0.000000 -1.000000
vn 0.000000 0.000000 -1.000000
vn 0.000000 0.000000 -1.000000
vn 0.000000 0.000000 -1.000000
vn 0.000000 0.000000 -1.000000
vn 0.000000 0.000000 -1.000000
vn 0.000000 0.000000 -1.000000
vn 0.000000 0.000000 -1.000000
vn 0.000000 0.000000 -1.000000
s 1
g BarreraC2
usemtl initialShadingGroup
f 1/1/1 2/2/2 3/3/3
f 4/4/4 3/3/3 5/5/5
f 2/2/2 6/6/6 3/3/3
f 12/7/7 13/8/8 3/3/3 4/4/4 11/9/9 10/10/10
f 15/11/11 12/7/7 10/10/10 9/12/12 14/13/13
f 6/6/6 15/11/11 14/13/13 8/14/14 7/15/15 5/5/5 3/3/3
f 13/8/8 16/16/16 3/3/3
f 17/17/17 1/1/1 3/3/3
f 16/16/16 18/18/18 3/3/3
f 19/19/19 17/17/17 3/3/3
f 18/18/18 19/19/19 3/3/3
