# This file uses centimeters as units for non-parametric coordinates.

mtllib BarreraT3.mtl
g default
v -15.426161 -0.020168 0.022359
v -12.479758 9.047931 0.022359
v 0.001411 -0.020168 0.022359
v 12.482576 -9.088266 0.022359
v 4.768792 -14.692659 0.022359
v 15.428980 -0.020168 0.022359
v -4.690042 8.264155 0.022359
v -4.354708 6.409391 0.022359
v 12.482577 9.047932 0.022359
v 4.768791 14.652326 0.022359
v -2.103533 7.946019 0.022359
v 0.178640 8.674765 0.022359
v -2.699429 12.623105 0.022359
v -3.304045 10.265213 0.022359
v -0.765159 10.876726 0.022359
v -2.499206 7.675936 0.022359
v -1.078114 13.584321 0.022359
v -3.328869 10.229374 0.022359
v -4.765973 14.652325 0.022359
v -4.765970 -14.692660 0.022359
v -12.479756 -9.088267 0.022359
vt 0.343750 0.156250
vt 0.373591 0.064409
vt 0.500000 0.150000
vt 0.626409 0.248091
vt 0.548284 0.304853
vt 0.656250 0.156250
vt 0.626409 0.064409
vt 0.548284 0.007647
vt 0.451716 0.007647
vt 0.466271 0.050559
vt 0.452485 0.070126
vt 0.455881 0.088188
vt 0.474674 0.075332
vt 0.478681 0.072712
vt 0.501795 0.065642
vt 0.492236 0.044278
vt 0.489067 0.018009
vt 0.472646 0.027335
vt 0.466522 0.050211
vt 0.451716 0.304853
vt 0.373591 0.248091
vn -0.000000 0.000000 -1.000000
vn -0.000000 0.000000 -1.000000
vn 0.000000 0.000000 -1.000000
vn -0.000000 0.000000 -1.000000
vn 0.000000 0.000000 -1.000000
vn 0.000000 0.000000 -1.000000
vn 0.000000 0.000000 -1.000000
vn 0.000000 0.000000 -1.000000
vn -0.000000 0.000000 -1.000000
vn -0.000000 0.000000 -1.000000
vn 0.000000 0.000000 -1.000000
vn 0.000000 0.000000 -1.000000
vn -0.000000 0.000000 -1.000000
vn -0.000000 0.000000 -1.000000
vn -0.000000 0.000000 -1.000000
vn -0.000000 0.000000 -1.000000
vn -0.000000 0.000000 -1.000000
vn -0.000000 0.000000 -1.000000
vn -0.000000 0.000000 -1.000000
vn 0.000000 0.000000 -1.000000
vn -0.000000 0.000000 -1.000000
s 1
g BarreraT3
usemtl initialShadingGroup
f 1/1/1 2/2/2 3/3/3
f 4/4/4 5/5/5 3/3/3
f 6/6/6 4/4/4 3/3/3
f 9/7/7 6/6/6 3/3/3
f 10/8/8 9/7/7 3/3/3
f 2/2/2 19/9/9 18/10/10 7/11/11 8/12/12 16/13/13 3/3/3
f 19/9/9 10/8/8 3/3/3 16/13/13 11/14/14 12/15/15 15/16/16 17/17/17 13/18/18 14/19/19 18/10/10
f 5/5/5 20/20/20 3/3/3
f 21/21/21 1/1/1 3/3/3
f 20/20/20 21/21/21 3/3/3
