# This file uses centimeters as units for non-parametric coordinates.

mtllib BarreraE1.mtl
g default
v -3.047872 -0.853232 0.022999
v -2.849186 -1.040880 0.022999
v -3.175436 -0.616783 0.022999
v -2.598829 -1.161357 0.022999
v -3.219392 -0.354677 0.022999
v -2.321304 -1.202870 0.022999
v -3.175436 -0.092570 0.022999
v -2.039230 -1.164227 0.022999
v -1.692957 -1.632082 0.022999
v -1.229649 -2.095390 0.022999
v -0.645846 -2.392853 0.022999
v 0.001304 -2.495351 0.022999
v -2.849187 0.331526 0.022999
v -3.047872 0.143879 0.022999
v -1.867349 -1.396458 0.022999
v -0.746851 -2.341388 0.022999
v -2.598829 0.452004 0.022999
v -3.146428 -0.038802 0.022999
v 0.648455 -2.392853 0.022999
v -2.321304 0.493517 0.022999
v -2.043780 0.452004 0.022999
v -1.693372 0.825513 0.022999
v 1.232257 -2.095390 0.022999
v 1.695566 -1.632082 0.022999
v 0.749460 -2.341388 0.022999
v -0.701663 1.586523 0.022999
v -1.229649 1.293133 0.022999
v -0.730504 1.709485 0.022999
v 2.040534 -1.164227 0.022999
v 2.321304 -1.202870 0.022999
v -15.350926 -0.038803 0.022999
v -12.418912 8.985011 0.022999
v -1.481873 1.038789 0.022999
v -0.694687 1.989684 0.022999
v 2.598829 -1.161357 0.022999
v 2.849186 -1.040880 0.022999
v -0.428842 2.355588 0.022999
v -0.590741 2.193689 0.022999
v 12.421518 -9.062615 0.022999
v 4.745404 -14.639639 0.022999
v 1.869530 -1.396147 0.022999
v 3.047872 -0.853232 0.022999
v -0.224837 2.459534 0.022999
v 0.001304 2.495351 0.022999
v 0.704272 1.586523 0.022999
v 0.733113 1.709485 0.022999
v 3.175436 -0.616783 0.022999
v 1.232258 1.293133 0.022999
v 2.043780 0.452004 0.022999
v 1.694677 0.825513 0.022999
v 0.697296 1.989684 0.022999
v 0.227446 2.459534 0.022999
v 2.321304 0.493517 0.022999
v 3.219392 -0.354677 0.022999
v 0.431451 2.355588 0.022999
v 0.593350 2.193689 0.022999
v 2.598829 0.452004 0.022999
v 3.175436 -0.092570 0.022999
v 2.849187 0.331527 0.022999
v 3.047872 0.143879 0.022999
v -0.672158 2.033900 0.022999
v 1.484069 1.038490 0.022999
v 0.674766 2.033901 0.022999
v 3.146428 -0.038802 0.022999
v -4.742798 14.562036 0.022999
v 4.745403 14.562038 0.022999
v 12.421519 8.985014 0.022999
v 15.353533 -0.038802 0.022999
v -4.742795 -14.639640 0.022999
v -12.418910 -9.062617 0.022999
vt 0.343750 0.156250
vt 0.373591 0.064409
vt 0.484905 0.139779
vt 0.482752 0.142008
vt 0.479186 0.145902
vt 0.476361 0.145598
vt 0.473537 0.146128
vt 0.470989 0.147440
vt 0.468966 0.149406
vt 0.467963 0.151281
vt 0.626409 0.248091
vt 0.548284 0.304853
vt 0.507614 0.174421
vt 0.512528 0.171953
vt 0.517244 0.167194
vt 0.519014 0.164755
vt 0.451716 0.007647
vt 0.493146 0.129792
vt 0.492916 0.130232
vt 0.492552 0.132996
vt 0.492845 0.134198
vt 0.487472 0.137215
vt 0.548284 0.007647
vt 0.626409 0.064409
vt 0.515091 0.139782
vt 0.512528 0.137215
vt 0.507155 0.134198
vt 0.507448 0.132996
vt 0.507084 0.130232
vt 0.506854 0.129792
vt 0.656250 0.156250
vt 0.532010 0.151280
vt 0.531007 0.149405
vt 0.528985 0.147439
vt 0.526437 0.146127
vt 0.523612 0.145597
vt 0.520788 0.145901
vt 0.517235 0.142007
vt 0.506026 0.128234
vt 0.504378 0.126656
vt 0.502302 0.125642
vt 0.500000 0.125293
vt 0.497698 0.125642
vt 0.495622 0.126656
vt 0.493974 0.128234
vt 0.520755 0.162433
vt 0.523612 0.162946
vt 0.526437 0.162631
vt 0.528985 0.161491
vt 0.531007 0.159637
vt 0.532305 0.157251
vt 0.532753 0.154567
vt 0.532305 0.151847
vt 0.451716 0.304853
vt 0.492386 0.174421
vt 0.493414 0.174966
vt 0.500000 0.176054
vt 0.506586 0.174966
vt 0.373591 0.248091
vt 0.480981 0.164758
vt 0.482756 0.167194
vt 0.487472 0.171953
vt 0.467668 0.151848
vt 0.467221 0.154568
vt 0.467668 0.157252
vt 0.468966 0.159638
vt 0.470989 0.161492
vt 0.473537 0.162632
vt 0.476361 0.162947
vt 0.479232 0.162434
vn -0.000000 0.000000 -1.000000
vn -0.000000 0.000000 -1.000000
vn -0.000000 0.000000 -1.000000
vn -0.000000 0.000000 -1.000000
vn -0.000000 0.000000 -1.000000
vn -0.000000 0.000000 -1.000000
vn -0.000000 0.000000 -1.000000
vn -0.000000 0.000000 -1.000000
vn -0.000000 0.000000 -1.000000
vn -0.000000 0.000000 -1.000000
vn -0.000000 0.000000 -1.000000
vn 0.000000 0.000000 -1.000000
vn -0.000000 0.000000 -1.000000
vn -0.000000 0.000000 -1.000000
vn -0.000000 0.000000 -1.000000
vn -0.000000 0.000000 -1.000000
vn 0.000000 0.000000 -1.000000
vn 0.000000 0.000000 -1.000000
vn 0.000000 0.000000 -1.000000
vn 0.000000 0.000000 -1.000000
vn 0.000000 0.000000 -1.000000
vn 0.000000 0.000000 -1.000000
vn 0.000000 0.000000 -1.000000
vn 0.000000 0.000000 -1.000000
vn 0.000000 0.000000 -1.000000
vn 0.000000 0.000000 -1.000000
vn 0.000000 0.000000 -1.000000
vn 0.000000 0.000000 -1.000000
vn 0.000000 0.000000 -1.000000
vn 0.000000 0.000000 -1.000000
vn 0.000000 0.000000 -1.000000
vn 0.000000 0.000000 -1.000000
vn 0.000000 0.000000 -1.000000
vn 0.000000 0.000000 -1.000000
vn 0.000000 0.000000 -1.000000
vn 0.000000 0.000000 -1.000000
vn 0.000000 0.000000 -1.000000
vn 0.000000 0.000000 -1.000000
vn 0.000000 0.000000 -1.000000
vn 0.000000 0.000000 -1.000000
vn 0.000000 0.000000 -1.000000
vn 0.000000 0.000000 -1.000000
vn 0.000000 0.000000 -1.000000
vn 0.000000 0.000000 -1.000000
vn 0.000000 0.000000 -1.000000
vn 0.000000 0.000000 -1.000000
vn 0.000000 0.000000 -1.000000
vn 0.000000 0.000000 -1.000000
vn 0.000000 0.000000 -1.000000
vn 0.000000 0.000000 -1.000000
vn 0.000000 0.000000 -1.000000
vn 0.000000 0.000000 -1.000000
vn 0.000000 0.000000 -1.000000
vn 0.000000 0.000000 -1.000000
vn 0.000000 0.000000 -1.000000
vn 0.000000 0.000000 -1.000000
vn 0.000000 0.000000 -1.000000
vn 0.000000 0.000000 -1.000000
vn -0.000000 0.000000 -1.000000
vn 0.000000 0.000000 -1.000000
vn 0.000000 0.000000 -1.000000
vn 0.000000 0.000000 -1.000000
vn -0.000000 0.000000 -1.000000
vn -0.000000 0.000000 -1.000000
vn -0.000000 0.000000 -1.000000
vn -0.000000 0.000000 -1.000000
vn -0.000000 0.000000 -1.000000
vn -0.000000 0.000000 -1.000000
vn -0.000000 0.000000 -1.000000
vn -0.000000 0.000000 -1.000000
s 1
g BarreraE1
usemtl initialShadingGroup
f 31/1/1 32/2/2 33/3/3 22/4/4 21/5/5 20/6/6 17/7/7 13/8/8 14/9/9 18/10/10
f 39/11/11 40/12/12 25/13/13 23/14/14 24/15/15 41/16/16
f 32/2/2 65/17/17 61/18/18 34/19/19 28/20/20 26/21/21 27/22/22 33/3/3
f 66/23/23 67/24/24 62/25/25 48/26/26 45/27/27 46/28/28 51/29/29 63/30/30
f 67/24/24 68/31/31 64/32/32 60/33/33 59/34/34 57/35/35 53/36/36 49/37/37 50/38/38 62/25/25
f 65/17/17 66/23/23 63/30/30 56/39/39 55/40/40 52/41/41 44/42/42 43/43/43 37/44/44 38/45/45 61/18/18
f 68/31/31 39/11/11 41/16/16 29/46/46 30/47/47 35/48/48 36/49/49 42/50/50 47/51/51 54/52/52 58/53/53 64/32/32
f 40/12/12 69/54/54 16/55/55 11/56/56 12/57/57 19/58/58 25/13/13
f 69/54/54 70/59/59 15/60/60 9/61/61 10/62/62 16/55/55
f 70/59/59 31/1/1 18/10/10 7/63/63 5/64/64 3/65/65 1/66/66 2/67/67 4/68/68 6/69/69 8/70/70 15/60/60
