# This file uses centimeters as units for non-parametric coordinates.

mtllib ast2.mtl
g default
v -2.025004 -2.682798 2.767790
v -1.107150 -2.401782 3.934799
v 0.256032 -2.499875 4.336808
v 1.539674 -2.671918 3.225955
v -2.743757 -1.265040 3.957526
v -0.828333 -0.850098 6.409288
v 0.781752 -0.984469 6.404923
v 2.216937 -1.433920 3.241417
v -2.704866 0.385624 5.206032
v -0.758386 0.904772 6.665713
v 0.775573 1.030670 6.424998
v 2.012715 0.213041 3.162464
v -2.168049 2.002279 4.347639
v -0.875440 2.439611 5.347067
v 0.423802 2.186520 4.188331
v 1.526602 1.431652 2.620046
v -2.349928 2.372436 1.355886
v -0.949534 2.681349 1.473030
v 0.507371 2.564010 0.976080
v 1.711453 1.996996 0.468047
v -1.343196 2.050967 -0.678026
v -0.523537 2.290446 -1.811493
v 0.620926 1.877014 -1.860831
v 1.727401 1.583948 -1.897736
v -0.855431 0.990225 -3.888169
v -0.449167 1.275461 -4.982808
v 0.384354 1.255467 -4.985449
v 1.085736 1.090738 -3.606576
v -1.293979 0.378144 -4.984617
v -0.455457 0.374985 -6.103082
v 0.384451 0.374985 -6.103082
v 1.221246 0.369505 -4.985911
v -1.295364 -0.511143 -4.985128
v -0.455457 -0.511143 -6.103082
v 0.384451 -0.511143 -6.103082
v 1.224441 -0.511052 -4.985088
v -1.002822 -1.253258 -4.176297
v -0.245259 -1.190644 -4.569085
v 0.384573 -1.397137 -4.985069
v 1.037300 -1.568758 -3.758423
v -1.525780 -1.923911 -0.977551
v -0.592368 -2.179478 -1.833622
v 0.530154 -1.801455 -1.777333
v 1.597965 -1.594403 -1.630087
v -2.192779 -2.630118 1.280172
v -0.796136 -3.233707 1.572992
v 0.794390 -3.052326 1.682080
v 2.187491 -2.250163 1.669909
v 1.874727 -0.811704 -1.922183
v 2.748040 -0.923623 1.430651
v 2.165888 0.331944 -1.912031
v 2.239826 0.584338 0.743531
v -1.695879 -0.593484 -1.826913
v -3.001202 -1.179003 1.193000
v -1.644252 0.697313 -1.812817
v -3.128735 0.580861 1.266244
vt 0.375000 0.000000
vt 0.458333 0.000000
vt 0.541667 0.000000
vt 0.625000 0.000000
vt 0.375000 0.083333
vt 0.458333 0.083333
vt 0.541667 0.083333
vt 0.625000 0.083333
vt 0.375000 0.166667
vt 0.458333 0.166667
vt 0.541667 0.166667
vt 0.625000 0.166667
vt 0.375000 0.250000
vt 0.458333 0.250000
vt 0.541667 0.250000
vt 0.625000 0.250000
vt 0.375000 0.333333
vt 0.458333 0.333333
vt 0.541667 0.333333
vt 0.625000 0.333333
vt 0.375000 0.416667
vt 0.458333 0.416667
vt 0.541667 0.416667
vt 0.625000 0.416667
vt 0.375000 0.500000
vt 0.458333 0.500000
vt 0.541667 0.500000
vt 0.625000 0.500000
vt 0.375000 0.583333
vt 0.458333 0.583333
vt 0.541667 0.583333
vt 0.625000 0.583333
vt 0.375000 0.666667
vt 0.458333 0.666667
vt 0.541667 0.666667
vt 0.625000 0.666667
vt 0.375000 0.750000
vt 0.458333 0.750000
vt 0.541667 0.750000
vt 0.625000 0.750000
vt 0.375000 0.833333
vt 0.458333 0.833333
vt 0.541667 0.833333
vt 0.625000 0.833333
vt 0.375000 0.916667
vt 0.458333 0.916667
vt 0.541667 0.916667
vt 0.625000 0.916667
vt 0.375000 1.000000
vt 0.458333 1.000000
vt 0.541667 1.000000
vt 0.625000 1.000000
vt 0.875000 0.000000
vt 0.791667 0.000000
vt 0.708333 0.000000
vt 0.875000 0.083333
vt 0.791667 0.083333
vt 0.708333 0.083333
vt 0.875000 0.166667
vt 0.791667 0.166667
vt 0.708333 0.166667
vt 0.875000 0.250000
vt 0.791667 0.250000
vt 0.708333 0.250000
vt 0.125000 0.000000
vt 0.208333 0.000000
vt 0.291667 0.000000
vt 0.125000 0.083333
vt 0.208333 0.083333
vt 0.291667 0.083333
vt 0.125000 0.166667
vt 0.208333 0.166667
vt 0.291667 0.166667
vt 0.125000 0.250000
vt 0.208333 0.250000
vt 0.291667 0.250000
vn -0.474821 -0.694426 0.540665
vn -0.389327 -0.755690 0.526647
vn -0.587681 -0.580462 0.563645
vn -0.389817 -0.537297 0.747901
vn 0.067247 -0.828933 0.555291
vn 0.648115 -0.356153 0.673129
vn 0.625776 -0.617266 0.476851
vn 0.891675 -0.152547 0.426198
vn -0.691919 -0.021227 0.721663
vn -0.272664 0.368852 0.888596
vn 0.699409 0.448715 0.556310
vn 0.926182 0.170215 0.336473
vn -0.609269 0.506354 0.610244
vn -0.003213 0.651521 0.758624
vn 0.532531 0.742358 0.406590
vn 0.824343 0.522524 0.217776
vn -0.062709 0.996019 0.063350
vn -0.090479 0.995832 -0.011486
vn -0.300252 0.948926 0.096892
vn -0.217497 0.975684 0.027143
vn 0.378346 0.920540 0.097261
vn 0.315805 0.948771 -0.010098
vn 0.591890 0.786796 0.174981
vn 0.399411 0.916761 0.004416
vn -0.437805 0.863605 -0.250026
vn -0.096175 0.964251 -0.246922
vn 0.313062 0.920261 -0.234757
vn 0.241844 0.942258 -0.231650
vn -0.781972 0.576833 -0.236185
vn -0.229698 0.935828 -0.267330
vn 0.217089 0.954118 -0.206229
vn 0.441399 0.856306 -0.268153
vn -0.563214 0.645586 -0.515760
vn -0.498802 0.500356 -0.707701
vn -0.702785 0.642521 -0.305385
vn -0.685936 0.513365 -0.515702
vn 0.429212 0.744715 -0.511054
vn 0.483206 0.458310 -0.745965
vn 0.698544 0.659998 -0.276476
vn 0.770992 0.397993 -0.497165
vn -0.739016 -0.382082 -0.554859
vn -0.406180 -0.597548 -0.691342
vn 0.434294 -0.514961 -0.739056
vn 0.751474 -0.366186 -0.548812
vn -0.376503 -0.823603 -0.424174
vn -0.207009 -0.874116 -0.439397
vn 0.318360 -0.755856 -0.572127
vn 0.653678 -0.619592 -0.434524
vn -0.024561 -0.965183 -0.260418
vn -0.050699 -0.947633 -0.315313
vn -0.266393 -0.911400 -0.313664
vn -0.419127 -0.855034 -0.305368
vn -0.265943 -0.957845 -0.108662
vn 0.223357 -0.932579 -0.283564
vn 0.080880 -0.992107 -0.095827
vn 0.338687 -0.904871 -0.257876
vn -0.083316 -0.994207 -0.067906
vn -0.342339 -0.908464 -0.239784
vn 0.234920 -0.966969 -0.098909
vn 0.485832 -0.847008 -0.215744
vn -0.282412 -0.948017 0.146655
vn -0.139590 -0.939580 0.312577
vn 0.015641 -0.969136 0.246030
vn 0.338321 -0.938575 0.067943
vn 0.881292 -0.407091 -0.240004
vn 0.880169 -0.415056 -0.230285
vn 0.952643 -0.208064 -0.221766
vn 0.938828 -0.234586 -0.252132
vn 0.900757 -0.433300 -0.029811
vn 0.998647 -0.021038 -0.047551
vn 0.853019 -0.469501 0.227876
vn 0.948997 -0.200293 0.243490
vn 0.987335 0.054797 -0.148888
vn 0.917706 0.283231 -0.278562
vn 0.958159 0.286236 -0.000366
vn 0.920507 0.347283 0.179054
vn 0.821232 0.479973 -0.308552
vn 0.927791 0.331923 -0.170383
vn 0.932870 0.357509 0.044049
vn 0.904753 0.391858 0.166940
vn -0.857291 -0.374676 -0.353086
vn -0.938063 -0.149560 -0.312521
vn -0.919597 -0.353160 -0.172099
vn -0.969870 -0.207046 -0.128394
vn -0.856425 -0.493805 -0.150640
vn -0.954586 -0.246098 -0.167935
vn -0.860719 -0.502871 0.079265
vn -0.969510 -0.228506 0.088522
vn -0.958471 0.250652 -0.136040
vn -0.902522 0.284067 -0.323667
vn -0.973452 0.184023 -0.136116
vn -0.981376 0.155146 0.113271
vn -0.785718 0.579319 -0.216880
vn -0.773701 0.499156 -0.390166
vn -0.890682 0.423459 -0.165434
vn -0.917705 0.381722 0.110028
s 1
g asteroid2
usemtl lambert9SG
f 1/1/1 2/2/2 5/5/3
f 5/5/3 2/2/2 6/6/4
f 2/2/2 3/3/5 6/6/4
f 6/6/4 3/3/5 7/7/6
f 3/3/5 4/4/7 7/7/6
f 7/7/6 4/4/7 8/8/8
f 5/5/3 6/6/4 9/9/9
f 9/9/9 6/6/4 10/10/10
f 6/6/4 7/7/6 10/10/10
f 10/10/10 7/7/6 11/11/11
f 8/8/8 12/12/12 7/7/6
f 7/7/6 12/12/12 11/11/11
f 9/9/9 10/10/10 13/13/13
f 13/13/13 10/10/10 14/14/14
f 11/11/11 15/15/15 10/10/10
f 10/10/10 15/15/15 14/14/14
f 12/12/12 16/16/16 11/11/11
f 11/11/11 16/16/16 15/15/15
s 2
f 14/14/17 18/18/18 13/13/19
f 13/13/19 18/18/18 17/17/20
f 14/14/17 15/15/21 18/18/18
f 18/18/18 15/15/21 19/19/22
f 15/15/21 16/16/23 19/19/22
f 19/19/22 16/16/23 20/20/24
f 17/17/20 18/18/18 21/21/25
f 21/21/25 18/18/18 22/22/26
f 18/18/18 19/19/22 22/22/26
f 22/22/26 19/19/22 23/23/27
f 19/19/22 20/20/24 23/23/27
f 23/23/27 20/20/24 24/24/28
f 21/21/25 22/22/26 25/25/29
f 25/25/29 22/22/26 26/26/30
f 22/22/26 23/23/27 26/26/30
f 26/26/30 23/23/27 27/27/31
f 24/24/28 28/28/32 23/23/27
f 23/23/27 28/28/32 27/27/31
s 3
f 26/26/33 30/30/34 25/25/35
f 25/25/35 30/30/34 29/29/36
f 26/26/33 27/27/37 30/30/34
f 30/30/34 27/27/37 31/31/38
f 28/28/39 32/32/40 27/27/37
f 27/27/37 32/32/40 31/31/38
f 29/29/36 30/30/34 33/33/41
f 33/33/41 30/30/34 34/34/42
f 30/30/34 31/31/38 34/34/42
f 34/34/42 31/31/38 35/35/43
f 31/31/38 32/32/40 35/35/43
f 35/35/43 32/32/40 36/36/44
f 33/33/41 34/34/42 37/37/45
f 37/37/45 34/34/42 38/38/46
f 34/34/42 35/35/43 38/38/46
f 38/38/46 35/35/43 39/39/47
f 35/35/43 36/36/44 39/39/47
f 39/39/47 36/36/44 40/40/48
s 4
f 38/38/49 42/42/50 37/37/51
f 37/37/51 42/42/50 41/41/52
f 39/39/53 43/43/54 38/38/49
f 38/38/49 43/43/54 42/42/50
f 39/39/53 40/40/55 43/43/54
f 43/43/54 40/40/55 44/44/56
f 42/42/50 46/46/57 41/41/52
f 41/41/52 46/46/57 45/45/58
f 43/43/54 47/47/59 42/42/50
f 42/42/50 47/47/59 46/46/57
f 43/43/54 44/44/56 47/47/59
f 47/47/59 44/44/56 48/48/60
f 45/45/58 46/46/57 1/49/61
f 1/49/61 46/46/57 2/50/62
f 47/47/59 3/51/63 46/46/57
f 46/46/57 3/51/63 2/50/62
f 48/48/60 4/52/64 47/47/59
f 47/47/59 4/52/64 3/51/63
s 6
f 44/54/65 40/53/66 49/57/67
f 49/57/67 40/53/66 36/56/68
f 48/55/69 44/54/65 50/58/70
f 50/58/70 44/54/65 49/57/67
f 4/4/71 48/55/69 8/8/72
f 8/8/72 48/55/69 50/58/70
f 49/57/67 36/56/68 51/60/73
f 51/60/73 36/56/68 32/59/74
f 50/58/70 49/57/67 52/61/75
f 52/61/75 49/57/67 51/60/73
f 8/8/72 50/58/70 12/12/76
f 12/12/76 50/58/70 52/61/75
f 32/59/74 28/62/77 51/60/73
f 51/60/73 28/62/77 24/63/78
f 51/60/73 24/63/78 52/61/75
f 52/61/75 24/63/78 20/64/79
f 12/12/76 52/61/75 16/16/80
f 16/16/80 52/61/75 20/64/79
s 7
f 41/66/81 53/69/82 37/65/83
f 37/65/83 53/69/82 33/68/84
f 45/67/85 54/70/86 41/66/81
f 41/66/81 54/70/86 53/69/82
f 1/1/87 5/5/88 45/67/85
f 45/67/85 5/5/88 54/70/86
f 33/68/84 53/69/82 29/71/89
f 29/71/89 53/69/82 55/72/90
f 54/70/86 56/73/91 53/69/82
f 53/69/82 56/73/91 55/72/90
f 54/70/86 5/5/88 56/73/91
f 56/73/91 5/5/88 9/9/92
f 29/71/89 55/72/90 25/74/93
f 25/74/93 55/72/90 21/75/94
f 56/73/91 17/76/95 55/72/90
f 55/72/90 17/76/95 21/75/94
f 9/9/92 13/13/96 56/73/91
f 56/73/91 13/13/96 17/76/95
